<?xml version="1.0" standalone="no"?>
<!DOCTYPE svg PUBLIC "-//W3C//DTD SVG 1.1//EN" "http://www.w3.org/Graphics/SVG/1.1/DTD/svg11.dtd" >
<!--
Created with mf2outline.
-->
<svg xmlns="http://www.w3.org/2000/svg" xmlns:xlink="http://www.w3.org/1999/xlink" version="1.1">
<metadata>
Created by FontForge 20201107 at Wed Jan 24 02:39:14 2024
 By 
Copyright (c) 2024, Metaflop (http://www.metaflop.com), Simon Egli, Marco Mueller, Alexis Reigel, with Reserved Font Name Bespoke. Dual licensed under the GPL v3 (http://www.gnu.org/copyleft/gpl.html) and the OFL v1.1 (http://scripts.sil.org/OFL_web).
</metadata>
<defs>
<font id="Bespoke-yX_2D5ihmJ" horiz-adv-x="874" >
  <font-face 
    font-family="Bespoke"
    font-weight="500"
    font-stretch="normal"
    units-per-em="1000"
    panose-1="2 0 5 3 0 0 0 0 0 0"
    ascent="800"
    descent="-200"
    x-height="552"
    cap-height="850"
    bbox="-249 -312 1942 1188"
    underline-thickness="50"
    underline-position="-100"
    unicode-range="U+0020-FB04"
  />
    <missing-glyph />
    <glyph glyph-name="fi" unicode="fi" 
d="M995 825c-11 73 -85 94 -162 94c-57 0 -120 -11 -177 -48c-51 -33 -87 -84 -105 -135l-66 -184h477l-199 -552h-45l184 512h-431l-185 -512h-45l184 512h-192l14 40h193l66 184c23 63 66 125 128 166c69 45 145 58 214 58c93 0 182 -25 195 -114z" />
    <glyph glyph-name="guillemotright" unicode="&#x3e;&#x3e;" 
d="M537 276l-390 -276h-63l389 276l-190 276h63zM890 276l-389 -276h-64l389 276l-190 276h64z" />
    <glyph glyph-name="guillemotleft" unicode="&#x3c;&#x3c;" 
d="M247 276l190 -276h-64l-190 276l389 276h64zM600 276l190 -276h-63l-190 276l389 276h63z" />
    <glyph glyph-name="quotedblright" unicode="&#x2019;&#x2019;" horiz-adv-x="856" 
d="M380 574l248 276h45l-259 -276h-34zM943 850h56l-260 -276h-42z" />
    <glyph glyph-name="exclamdown" unicode="&#x21;&#x2018;" horiz-adv-x="454" 
d="M97 -300l245 681h45l-245 -681h-45zM388 528c0 24 20 45 45 45c16 0 22 -9 22 -20c0 -24 -20 -44 -45 -44c-16 0 -22 8 -22 19z" />
    <glyph glyph-name="fl" unicode="fl" horiz-adv-x="921" 
d="M826 860c0 48 -45 59 -90 59c-31 0 -65 -5 -96 -24c-26 -16 -46 -42 -55 -68l-99 -275h191l-15 -40h-191l-184 -512h-45l184 512h-193l14 40h194l99 275c14 38 41 75 78 99c43 27 89 34 132 34c62 0 125 -18 125 -84c0 -15 -4 -32 -10 -49h-45c4 11 6 23 6 33zM764 0
l342 950h45l-342 -950h-45z" />
    <glyph glyph-name="questiondown" unicode="&#x3f;&#x2018;" horiz-adv-x="800" 
d="M344 -310c-126 0 -261 31 -261 165c0 27 5 56 16 85c26 72 81 142 154 185c82 48 168 63 249 65l68 191h46l-84 -231h-22c-76 0 -157 -11 -234 -55c-62 -36 -110 -94 -132 -155c-9 -24 -13 -47 -13 -69c0 -115 120 -140 228 -140c77 0 164 12 240 58l13 -36
c-88 -51 -181 -63 -268 -63zM617 529c0 24 20 44 45 44c16 0 22 -9 22 -20c0 -24 -20 -44 -45 -44c-16 0 -22 9 -22 20z" />
    <glyph glyph-name="endash" unicode="&#x2d;&#x2d;" 
d="M148 256l15 41h762l-15 -41h-762z" />
    <glyph glyph-name="emdash" unicode="&#x2013;&#x2d;" horiz-adv-x="1525" 
d="M148 256l15 41h1413l-15 -41h-1413z" />
    <glyph glyph-name="quotedblleft" unicode="&#x2018;&#x2018;" horiz-adv-x="856" 
d="M375 574l258 276h34l-247 -276h-45zM950 850h42l-246 -276h-56z" />
    <glyph glyph-name="ring" unicode="&#x2da;" horiz-adv-x="391" 
d="M585 786c0 43 -49 50 -89 50c-29 0 -58 -2 -88 -18c-22 -12 -40 -32 -48 -53c-3 -7 -4 -14 -4 -21c0 -43 49 -50 89 -50c29 0 58 2 88 18c22 12 40 32 48 53c3 7 4 14 4 21zM435 666c-52 0 -111 11 -111 67c0 10 2 21 6 32c10 29 33 56 63 73c38 21 76 26 113 26
c52 0 111 -11 111 -67c0 -10 -2 -21 -6 -32c-10 -29 -33 -56 -63 -73c-38 -21 -76 -26 -113 -26z" />
    <glyph glyph-name="rcaron" unicode="&#x159;" horiz-adv-x="549" 
d="M112 0l198 552h46l-41 -111c22 25 49 48 79 65c80 46 163 56 241 56c55 0 110 -4 156 -21l-28 -40c-42 16 -92 21 -143 21c-71 0 -146 -9 -220 -47c-55 -29 -100 -77 -119 -130l-124 -345h-45zM863 843h46l-273 -170h-61l-150 170h45l144 -147z" />
    <glyph glyph-name="Eng" unicode="&#x14a;" horiz-adv-x="1163" 
d="M130 0l306 850h45l-306 -850h-45zM511 -216c28 -45 100 -53 163 -53c56 0 115 6 173 35c42 21 77 59 92 100l48 134h45l-48 -134c-19 -52 -62 -101 -115 -130c-70 -38 -142 -46 -210 -46c-75 0 -155 10 -190 61zM987 0l-1 -2l-1 2h2zM1293 850l-306 -850zM985 -0h-53
l-449 850h53zM483 850h-2l1 2zM1338 850l-306 -850z" />
    <glyph glyph-name="Q" unicode="Q" horiz-adv-x="1302" 
d="M1352 561c0 210 -209 258 -406 258c-137 0 -284 -20 -423 -102c-115 -68 -200 -179 -241 -292c-17 -47 -26 -93 -26 -136c0 -210 209 -258 406 -258c125 0 259 16 387 82l-115 122h81l87 -92c107 69 185 174 224 282c17 47 26 93 26 136zM961 860c149 0 293 -22 379 -113
c41 -44 60 -104 60 -170c0 -48 -10 -100 -29 -152c-42 -118 -127 -233 -243 -309l108 -116h-81l-79 85c-141 -75 -291 -95 -429 -95c-149 0 -293 22 -379 113c-41 44 -60 104 -60 170c0 48 10 100 29 152c45 125 137 246 263 322c151 91 312 113 461 113z" />
    <glyph glyph-name="Abreve" unicode="&#x102;" horiz-adv-x="1032" 
d="M19 0l753 850h100l142 -850h-46l-50 297h-579l-264 -297h-56zM1065 1043c-13 -37 -55 -64 -95 -78c-69 -24 -135 -27 -200 -27s-130 3 -181 27c-24 11 -43 31 -43 57c0 7 1 14 4 21h36c-2 -4 -2 -8 -2 -12c0 -20 21 -32 42 -39c47 -16 102 -18 157 -18s111 2 170 18
c31 9 66 23 76 51h36zM912 338l-85 510l-452 -510h537z" />
    <glyph glyph-name="i" unicode="i" horiz-adv-x="353" 
d="M154 0l199 552h45l-199 -552h-45zM420 754c0 23 23 46 47 46c17 0 24 -9 24 -20c0 -13 -10 -30 -20 -38c-9 -6 -18 -8 -27 -8c-17 0 -24 9 -24 20z" />
    <glyph glyph-name="quoteright" unicode="&#x2019;" horiz-adv-x="474" 
d="M588 850h57l-262 -276h-42z" />
    <glyph glyph-name="Gbreve" unicode="&#x11e;" horiz-adv-x="1330" 
d="M256 289c0 -210 209 -258 406 -258c134 0 276 13 416 82c100 50 185 137 220 233l21 58h-522l14 42h568l-161 -446h-45l82 229c-45 -59 -104 -110 -171 -146c-146 -77 -296 -93 -437 -93c-149 0 -293 22 -379 113c-41 44 -60 104 -60 170c0 48 10 100 29 152
c45 125 137 246 263 322c151 91 312 113 461 113c189 0 384 -41 429 -205l-47 -25c-41 152 -223 189 -397 189c-137 0 -284 -20 -423 -102c-115 -68 -200 -179 -241 -292c-17 -47 -26 -93 -26 -136zM1199 1043c-13 -37 -54 -64 -94 -78c-69 -24 -135 -27 -200 -27
s-130 3 -181 27c-24 11 -43 31 -43 57c0 7 1 14 4 21h36c-2 -4 -2 -8 -2 -12c0 -20 20 -32 41 -39c47 -16 103 -18 158 -18s111 2 170 18c31 9 65 23 75 51h36z" />
    <glyph glyph-name="Ohungarumlaut" unicode="&#x150;" horiz-adv-x="1302" 
d="M709 914l221 170h54l-236 -170h-39zM1209 1084h54l-236 -170h-39zM1352 561c0 210 -209 258 -406 258c-137 0 -284 -20 -423 -102c-115 -68 -200 -179 -241 -292c-17 -47 -26 -93 -26 -136c0 -210 209 -258 406 -258c137 0 284 20 423 102c115 68 200 179 241 292
c17 47 26 93 26 136zM961 860c149 0 293 -22 379 -113c41 -44 60 -104 60 -170c0 -48 -10 -100 -29 -152c-45 -125 -137 -246 -263 -322c-151 -91 -312 -113 -461 -113s-293 22 -379 113c-41 44 -60 104 -60 170c0 48 10 100 29 152c45 125 137 246 263 322
c151 91 312 113 461 113z" />
    <glyph glyph-name="racute" unicode="&#x155;" horiz-adv-x="549" 
d="M112 0l198 552h46l-41 -111c22 25 49 48 79 65c80 46 163 56 241 56c55 0 110 -4 156 -21l-28 -40c-42 16 -92 21 -143 21c-71 0 -146 -9 -220 -47c-55 -29 -100 -77 -119 -130l-124 -345h-45zM793 843h55l-250 -170h-41z" />
    <glyph glyph-name="udieresis" unicode="&#xfc;" horiz-adv-x="884" 
d="M208 148c0 -105 141 -117 240 -117c74 0 151 6 229 41c52 24 99 66 117 115l132 365h45l-199 -552h-45l37 103c-23 -25 -51 -46 -81 -62c-84 -43 -168 -51 -249 -51c-118 0 -274 18 -274 143c0 17 3 35 10 54l131 365h45l-131 -365c-5 -14 -7 -27 -7 -39zM513 754
c0 23 23 46 47 46c17 0 24 -9 24 -20c0 -13 -10 -30 -20 -38c-9 -6 -18 -8 -27 -8c-17 0 -24 9 -24 20zM848 753c0 23 22 47 47 47c17 0 24 -9 24 -20c0 -13 -10 -30 -20 -38c-9 -6 -19 -8 -28 -8c-17 0 -23 8 -23 19z" />
    <glyph glyph-name="slash" unicode="/" horiz-adv-x="698" 
d="M22 -42l898 935h62l-898 -935h-62z" />
    <glyph glyph-name="asciitilde" unicode="~" horiz-adv-x="911" 
d="M189 193h-45c16 44 51 87 96 113c57 32 117 39 173 39c119 0 180 -97 299 -97c44 0 91 5 136 29c34 18 61 49 73 82h45c-16 -44 -51 -86 -96 -112c-57 -32 -116 -40 -172 -40c-119 0 -181 97 -300 97c-44 0 -90 -5 -135 -29c-34 -18 -62 -49 -74 -82z" />
    <glyph glyph-name="section" unicode="&#xa7;" horiz-adv-x="884" 
d="M610 93c69 -15 138 -51 138 -132c0 -17 -3 -36 -10 -55c-23 -65 -77 -125 -144 -160c-90 -47 -182 -56 -268 -56c-114 0 -246 19 -267 123l48 22c18 -89 135 -104 233 -104c74 0 153 7 231 46c56 28 103 76 122 129c6 17 9 34 9 50c0 109 -132 126 -235 126
c-117 0 -275 17 -275 141c0 16 3 34 9 52c34 97 146 162 261 182c-69 15 -138 51 -138 132c0 17 3 36 10 55c23 65 78 125 145 160c90 47 182 56 268 56c114 0 245 -19 266 -123l-48 -22c-18 89 -135 104 -233 104c-74 0 -153 -7 -231 -46c-56 -28 -103 -76 -122 -129
c-6 -17 -9 -34 -9 -50c0 -109 133 -126 236 -126c117 0 274 -17 274 -141c0 -16 -3 -34 -9 -52c-34 -97 -146 -162 -261 -182zM591 427c-74 0 -151 -6 -229 -40c-51 -23 -99 -64 -116 -112c-5 -13 -6 -25 -6 -37c0 -32 15 -58 41 -75c53 -34 126 -40 200 -40s151 6 229 40
c51 23 99 64 116 112c5 13 7 25 7 37c0 32 -16 58 -42 75c-53 34 -126 40 -200 40z" />
    <glyph glyph-name="guilsinglright" unicode="&#x203a;" horiz-adv-x="511" 
d="M527 276l-380 -276h-63l380 276l-181 276h63z" />
    <glyph glyph-name="Edieresis" unicode="&#xcb;" horiz-adv-x="865" 
d="M130 0l306 850h670l-15 -41h-624l-131 -363h602l-15 -42h-602l-131 -363h625l-15 -41h-670zM541 995c0 24 21 46 47 46c17 0 24 -9 24 -20c0 -24 -23 -46 -48 -46c-17 0 -23 9 -23 20zM947 1021c0 -24 -23 -46 -48 -46c-17 0 -24 9 -24 20c0 13 10 30 20 38
c9 6 19 8 28 8c17 0 24 -9 24 -20z" />
    <glyph glyph-name="eng" unicode="&#x14b;" horiz-adv-x="884" 
d="M877 414c0 91 -100 108 -185 108c-88 0 -179 -5 -272 -41c-57 -22 -113 -63 -132 -116l-131 -365h-45l198 552h46l-40 -109c27 28 62 52 98 68c99 44 199 51 293 51c103 0 218 -22 218 -132c0 -20 -4 -43 -12 -65c-60 -167 -120 -332 -180 -499
c-18 -50 -53 -99 -103 -130c-57 -36 -119 -46 -176 -46c-64 0 -129 13 -154 61l44 30c19 -40 72 -50 124 -50c45 0 94 7 139 35c39 24 67 62 81 100c60 167 120 332 180 499c6 17 9 34 9 49z" />
    <glyph glyph-name="r" unicode="r" horiz-adv-x="549" 
d="M112 0l198 552h46l-41 -111c22 25 49 48 79 65c80 46 163 56 241 56c55 0 110 -4 156 -21l-28 -40c-42 16 -92 21 -143 21c-71 0 -146 -9 -220 -47c-55 -29 -100 -77 -119 -130l-124 -345h-45z" />
    <glyph glyph-name="u" unicode="u" horiz-adv-x="884" 
d="M208 148c0 -105 141 -117 240 -117c74 0 151 6 229 41c52 24 99 66 117 115l132 365h45l-199 -552h-45l37 103c-23 -25 -51 -46 -81 -62c-84 -43 -168 -51 -249 -51c-118 0 -274 18 -274 143c0 17 3 35 10 54l131 365h45l-131 -365c-5 -14 -7 -27 -7 -39z" />
    <glyph glyph-name="Odieresis" unicode="&#xd6;" horiz-adv-x="1302" 
d="M727 995c0 24 21 46 47 46c17 0 24 -9 24 -20c0 -24 -23 -46 -48 -46c-17 0 -23 9 -23 20zM1133 1021c0 -24 -23 -46 -48 -46c-17 0 -24 9 -24 20c0 13 10 30 20 38c9 6 19 8 28 8c17 0 24 -9 24 -20zM1352 561c0 210 -209 258 -406 258c-137 0 -284 -20 -423 -102
c-115 -68 -200 -179 -241 -292c-17 -47 -26 -93 -26 -136c0 -210 209 -258 406 -258c137 0 284 20 423 102c115 68 200 179 241 292c17 47 26 93 26 136zM961 860c149 0 293 -22 379 -113c41 -44 60 -104 60 -170c0 -48 -10 -100 -29 -152c-45 -125 -137 -246 -263 -322
c-151 -91 -312 -113 -461 -113s-293 22 -379 113c-41 44 -60 104 -60 170c0 48 10 100 29 152c45 125 137 246 263 322c151 91 312 113 461 113z" />
    <glyph glyph-name="Zdotaccent" unicode="&#x17b;" horiz-adv-x="949" 
d="M338 809l14 41h856l-36 -100l-1107 -709h852l-15 -41h-856l36 100l1108 709h-852zM789 1021c0 -24 -23 -46 -48 -46c-17 0 -24 9 -24 20c0 13 10 30 20 38c9 6 19 8 28 8c17 0 24 -9 24 -20z" />
    <glyph glyph-name="Igrave" unicode="&#xcc;" horiz-adv-x="343" 
d="M149 0l306 850h45l-306 -850h-45zM296 1084h56l113 -170h-41z" />
    <glyph glyph-name="P" unicode="P" horiz-adv-x="949" 
d="M784 850c149 0 335 -26 335 -184c0 -24 -5 -50 -14 -76c-28 -78 -96 -150 -177 -192c-111 -57 -224 -68 -331 -68h-303l-119 -330h-45l306 850h348zM1071 650c0 139 -172 159 -302 159h-302l-158 -438h302c95 0 196 9 295 57c70 34 130 95 154 162c8 21 11 41 11 60z" />
    <glyph glyph-name="tcaron" unicode="&#x165;" horiz-adv-x="502" 
d="M195 512l15 40h217l144 398h45l-143 -398h217l-15 -40h-217l-184 -512h-45l184 512h-218zM988 950h57l-262 -276h-42z" />
    <glyph glyph-name="Scedilla" unicode="&#x15e;" horiz-adv-x="967" 
d="M1054 716c-33 90 -169 103 -280 103c-90 0 -183 -3 -277 -46c-62 -28 -115 -82 -136 -141c-7 -19 -9 -36 -9 -53c0 -72 60 -119 145 -119h9l287 -25h10c102 0 174 -57 174 -144c0 -20 -4 -43 -12 -66c-26 -73 -88 -141 -164 -177c-106 -51 -212 -58 -313 -58l-31 -64
c76 0 188 -10 188 -90c0 -9 -1 -19 -5 -29c-14 -38 -51 -70 -92 -88c-62 -27 -122 -31 -181 -31c-68 0 -151 6 -182 53l33 24c24 -41 101 -45 160 -45c84 0 200 17 225 87c2 7 4 13 4 19c0 20 -13 36 -31 45c-38 20 -86 23 -135 23h-34l48 96c-130 2 -287 25 -309 144l47 21
c5 -31 23 -56 49 -73c65 -44 156 -51 248 -51c93 0 191 4 289 48c64 29 118 85 140 146c7 18 10 37 10 53c0 70 -58 116 -141 116h-8l-288 25h-10c-105 0 -178 59 -178 147c0 21 4 43 12 66c25 70 85 137 158 172c107 51 213 56 315 56c128 0 283 -17 314 -127z" />
    <glyph glyph-name="b" unicode="b" horiz-adv-x="958" 
d="M499 -10c-133 0 -268 35 -276 170l-57 -160h-45l342 950h45l-201 -557c29 37 64 70 105 95c95 59 198 74 293 74c143 0 297 -34 297 -187c0 -31 -7 -65 -19 -99c-30 -82 -91 -163 -175 -212c-102 -60 -209 -74 -309 -74zM953 358c0 134 -137 164 -263 164
c-88 0 -182 -12 -272 -64c-72 -42 -127 -111 -153 -182c-10 -28 -15 -56 -15 -82c0 -134 137 -163 263 -163c88 0 182 12 272 64c72 42 127 110 153 181c10 28 15 56 15 82z" />
    <glyph glyph-name="Yacute" unicode="&#xdd;" horiz-adv-x="967" 
d="M315 850h51l241 -479l587 479h70l-640 -523l-118 -327h-45l118 327zM915 1084h56l-250 -170h-41z" />
    <glyph glyph-name="ecircumflex" unicode="&#xea;" horiz-adv-x="921" 
d="M204 196c0 -137 144 -165 272 -165c88 0 181 7 274 51c29 14 57 33 80 55l27 -27c-25 -23 -53 -43 -84 -58c-105 -52 -212 -62 -312 -62c-146 0 -305 34 -305 190c0 30 6 63 18 96c30 83 94 163 178 212c104 60 214 74 316 74c146 0 305 -33 305 -189
c0 -30 -6 -64 -18 -97l-7 -20h-736c-6 -21 -8 -41 -8 -60zM925 356c0 137 -144 166 -272 166c-90 0 -187 -12 -279 -64c-66 -37 -119 -97 -147 -161h689c6 21 9 40 9 59zM763 820l-250 -147h-45l272 170h62l150 -170h-46z" />
    <glyph glyph-name="ocircumflex" unicode="&#xf4;" horiz-adv-x="930" 
d="M925 356c0 137 -144 166 -272 166c-90 0 -187 -12 -279 -64c-73 -41 -129 -110 -155 -182c-10 -28 -15 -55 -15 -80c0 -137 144 -165 272 -165c90 0 187 12 279 64c73 41 129 109 155 181c10 28 15 55 15 80zM461 -10c-146 0 -305 34 -305 190c0 30 6 63 18 96
c30 83 94 163 178 212c104 60 214 74 316 74c146 0 305 -33 305 -189c0 -30 -6 -64 -18 -97c-30 -83 -94 -163 -178 -212c-104 -60 -214 -74 -316 -74zM763 820l-250 -147h-45l272 170h62l150 -170h-46z" />
    <glyph glyph-name="eogonek" unicode="&#x119;" horiz-adv-x="921" 
d="M204 196c0 -137 144 -165 272 -165c13 0 27 1 40 1l2 1v-1c76 3 154 13 232 50c29 14 57 33 80 55l27 -27c-25 -23 -53 -43 -84 -58c-96 -48 -193 -60 -286 -62l-147 -88c-64 -36 -156 -25 -181 -95c-2 -7 -4 -13 -4 -19c0 -20 13 -36 31 -45c38 -20 87 -23 136 -23
c55 0 125 6 173 33l7 -29c-59 -30 -131 -36 -192 -36c-77 0 -193 8 -193 90c0 9 2 19 6 29c32 89 149 81 232 128l92 55c-141 2 -291 39 -291 190c0 30 6 63 18 96c30 83 94 163 178 212c104 60 214 74 316 74c146 0 305 -33 305 -189c0 -30 -6 -64 -18 -97l-7 -20h-736
c-6 -21 -8 -41 -8 -60zM925 356c0 137 -144 166 -272 166c-90 0 -187 -12 -279 -64c-66 -37 -119 -97 -147 -161h689c6 21 9 40 9 59z" />
    <glyph glyph-name="ffi" unicode="&#xfb03;" horiz-adv-x="1293" 
d="M1414 826c-9 72 -80 93 -155 93c-55 0 -115 -11 -170 -48c-50 -34 -85 -84 -103 -135l-66 -184h460l-199 -552h-45l184 512h-415l-184 -512h-45l184 512h-390l-184 -512h-45l184 512h-192l14 40h193l85 239c17 46 45 92 89 125c44 32 94 44 140 44c36 0 70 -7 93 -26
l-38 -37c-16 16 -42 22 -70 22c-34 0 -71 -9 -103 -33c-33 -25 -54 -60 -66 -95l-85 -239h390l66 184c22 62 64 125 125 166c67 45 140 58 208 58c91 0 177 -26 188 -114z" />
    <glyph glyph-name="plus" unicode="+" horiz-adv-x="911" 
d="M632 552h45l-92 -255h359l-15 -41h-359l-92 -256h-45l92 256h-359l15 41h359z" />
    <glyph glyph-name="Eogonek" unicode="&#x118;" horiz-adv-x="865" 
d="M602 -312c-77 0 -193 8 -193 90c0 9 2 19 6 29c32 89 149 81 232 128l109 65h-626l306 850h670l-15 -41h-624l-131 -363h602l-15 -42h-602l-131 -363h625l-15 -41h-4l-164 -98c-64 -36 -156 -25 -181 -95c-2 -7 -4 -13 -4 -19c0 -20 13 -36 31 -45c38 -20 87 -23 136 -23
c55 0 125 6 173 33l7 -29c-59 -30 -131 -36 -192 -36z" />
    <glyph glyph-name="R" unicode="R" horiz-adv-x="939" 
d="M784 850c146 0 339 -22 339 -177c0 -21 -4 -44 -12 -67c-27 -75 -94 -143 -173 -181c-68 -33 -135 -49 -202 -57l194 -368h-53l-189 364c-27 -2 -54 -2 -80 -2h-302l-131 -362h-45l306 850h348zM467 809l-147 -406h303c94 0 194 8 293 53c67 31 127 86 150 150
c7 18 9 36 9 52c0 41 -19 76 -51 98c-66 45 -161 53 -255 53h-302z" />
    <glyph glyph-name="ecaron" unicode="&#x11b;" horiz-adv-x="921" 
d="M204 196c0 -137 144 -165 272 -165c88 0 181 7 274 51c29 14 57 33 80 55l27 -27c-25 -23 -53 -43 -84 -58c-105 -52 -212 -62 -312 -62c-146 0 -305 34 -305 190c0 30 6 63 18 96c30 83 94 163 178 212c104 60 214 74 316 74c146 0 305 -33 305 -189
c0 -30 -6 -64 -18 -97l-7 -20h-736c-6 -21 -8 -41 -8 -60zM967 843h46l-272 -170h-62l-150 170h46l143 -147zM925 356c0 137 -144 166 -272 166c-90 0 -187 -12 -279 -64c-66 -37 -119 -97 -147 -161h689c6 21 9 40 9 59z" />
    <glyph glyph-name="V" unicode="V" horiz-adv-x="978" 
d="M321 850h45l118 -846l727 846h58l-730 -850h-100z" />
    <glyph glyph-name="AE" unicode="&#xc6;" horiz-adv-x="1497" 
d="M19 0l1042 850h677l-15 -41h-609l-131 -363h577l-15 -42h-577l-131 -363h610l-15 -41h-655l108 298h-436l-366 -298h-64zM499 339h400l167 462z" />
    <glyph glyph-name="bracketright" unicode="]" horiz-adv-x="521" 
d="M377 893h298l-430 -1193h-297l15 41h252l400 1111h-253z" />
    <glyph glyph-name="H" unicode="H" horiz-adv-x="1116" 
d="M130 0l306 850h45l-145 -404h765l146 404h45l-306 -850h-45l145 404h-765l-146 -404h-45z" />
    <glyph glyph-name="exclam" unicode="!" horiz-adv-x="454" 
d="M274 192l237 658h45l-237 -658h-45zM205 19c0 24 20 45 45 45c16 0 22 -9 22 -20c0 -24 -20 -44 -45 -44c-16 0 -22 8 -22 19z" />
    <glyph glyph-name="Aogonek" unicode="&#x104;" horiz-adv-x="1032" 
d="M810 -312c-77 0 -192 8 -192 90c0 9 1 19 5 29c32 89 149 81 232 128l113 67l-50 295h-579l-264 -297h-56l753 850h100l137 -823l10 6l-8 -17l3 -16h-10l-163 -98c-64 -36 -157 -25 -182 -95c-2 -7 -3 -13 -3 -19c0 -20 13 -36 31 -45c38 -20 86 -23 135 -23
c55 0 125 6 173 33l8 -29c-59 -30 -132 -36 -193 -36zM912 338l-85 510l-452 -510h537z" />
    <glyph glyph-name="L" unicode="L" horiz-adv-x="856" 
d="M130 0l306 850h45l-291 -809h625l-15 -41h-670z" />
    <glyph glyph-name="comma" unicode="," horiz-adv-x="437" 
d="M286 110h76l-361 -276h-57z" />
    <glyph glyph-name="ydieresis" unicode="&#xff;" horiz-adv-x="781" 
d="M208 552h47l146 -498l505 498h65l-864 -852h-65l323 318zM466 754c0 24 23 46 48 46c17 0 24 -9 24 -20c0 -13 -10 -30 -20 -38c-9 -6 -19 -8 -28 -8c-17 0 -24 9 -24 20zM801 754c0 24 23 46 48 46c17 0 23 -9 23 -20c0 -24 -21 -46 -47 -46c-17 0 -24 9 -24 20z" />
    <glyph glyph-name="O" unicode="O" horiz-adv-x="1302" 
d="M1352 561c0 210 -209 258 -406 258c-137 0 -284 -20 -423 -102c-115 -68 -200 -179 -241 -292c-17 -47 -26 -93 -26 -136c0 -210 209 -258 406 -258c137 0 284 20 423 102c115 68 200 179 241 292c17 47 26 93 26 136zM961 860c149 0 293 -22 379 -113
c41 -44 60 -104 60 -170c0 -48 -10 -100 -29 -152c-45 -125 -137 -246 -263 -322c-151 -91 -312 -113 -461 -113s-293 22 -379 113c-41 44 -60 104 -60 170c0 48 10 100 29 152c45 125 137 246 263 322c151 91 312 113 461 113z" />
    <glyph glyph-name="bar" unicode="|" horiz-adv-x="372" 
d="M148 -42l337 935h45l-337 -935h-45z" />
    <glyph glyph-name="underscore" unicode="_" 
d="M14 -116l15 41h762l-14 -41h-763z" />
    <glyph glyph-name="circumflex" unicode="&#x2c6;" horiz-adv-x="391" 
d="M493 827l-249 -147h-46l273 170h61l150 -170h-45z" />
    <glyph glyph-name="Ecircumflex" unicode="&#xca;" horiz-adv-x="865" 
d="M130 0l306 850h670l-15 -41h-624l-131 -363h602l-15 -42h-602l-131 -363h625l-15 -41h-670zM763 1061l-250 -147h-45l272 170h62l150 -170h-46z" />
    <glyph glyph-name="asterisk" unicode="*" horiz-adv-x="865" 
d="M716 850h45l-72 -199l276 93l-19 -53l-256 -86l160 -180h-51l-149 167l-5 -2l-4 2l-270 -167h-51l291 180l-195 86l19 53l209 -93z" />
    <glyph glyph-name="dcaron" unicode="&#x10f;" horiz-adv-x="958" 
d="M658 562c133 0 267 -34 275 -169l201 557h45l-342 -950h-45l57 160c-29 -37 -64 -71 -105 -96c-95 -59 -197 -74 -292 -74c-143 0 -297 35 -297 188c0 31 7 64 19 98c30 82 91 163 175 212c102 60 209 74 309 74zM1388 950h57l-262 -276h-42zM907 358
c0 134 -138 164 -264 164c-88 0 -181 -12 -271 -64c-72 -42 -127 -111 -153 -182c-10 -28 -16 -56 -16 -82c0 -134 138 -163 264 -163c88 0 182 12 272 64c71 41 128 110 152 181c10 28 16 56 16 82z" />
    <glyph glyph-name="Ecaron" unicode="&#x11a;" horiz-adv-x="865" 
d="M130 0l306 850h670l-15 -41h-624l-131 -363h602l-15 -42h-602l-131 -363h625l-15 -41h-670zM967 1084h46l-272 -170h-62l-150 170h46l143 -147z" />
    <glyph glyph-name="Udieresis" unicode="&#xdc;" horiz-adv-x="1105" 
d="M250 193c0 -142 180 -162 314 -162c98 0 200 8 303 57c72 34 134 96 159 164l215 598h45l-215 -598c-29 -80 -98 -152 -181 -194c-115 -58 -231 -68 -341 -68c-153 0 -347 26 -347 188c0 24 4 48 13 74l216 598h45l-216 -598c-7 -21 -10 -40 -10 -59zM699 1022
c0 -23 -22 -47 -47 -47c-17 0 -24 9 -24 20c0 13 10 30 20 38c9 6 19 8 28 8c17 0 23 -8 23 -19zM1034 1022c0 -23 -22 -47 -47 -47c-17 0 -24 9 -24 20c0 13 10 30 20 38c9 6 19 8 28 8c17 0 23 -8 23 -19z" />
    <glyph glyph-name="Zcaron" unicode="&#x17d;" horiz-adv-x="949" 
d="M338 809l14 41h856l-36 -100l-1107 -709h852l-15 -41h-856l36 100l1108 709h-852zM977 1084h45l-272 -170h-62l-150 170h46l143 -147z" />
    <glyph glyph-name="acute" unicode="&#xb4;" horiz-adv-x="372" 
d="M553 850h55l-250 -170h-41z" />
    <glyph glyph-name="uni1E9E" unicode="&#x1e9e;" horiz-adv-x="1804" 
d="M1008 710c-22 95 -152 109 -259 109c-84 0 -171 -4 -258 -46c-60 -29 -109 -83 -130 -141c-7 -19 -10 -36 -10 -53c0 -71 58 -119 141 -119l267 -25c100 0 168 -59 168 -144c0 -20 -4 -43 -12 -66c-26 -71 -83 -140 -157 -177c-104 -52 -208 -58 -307 -58
c-130 0 -287 21 -306 144l47 20c16 -108 159 -123 273 -123c87 0 179 4 270 48c63 30 113 86 135 146c7 19 10 37 10 53c0 69 -55 116 -136 116l-267 25c-102 0 -173 60 -173 147c0 21 4 43 12 66c25 69 80 136 152 172c100 51 200 56 296 56c122 0 265 -19 291 -127z
M1895 710c-22 95 -152 109 -259 109c-84 0 -172 -4 -259 -46c-60 -29 -108 -83 -129 -141c-7 -19 -10 -36 -10 -53c0 -71 57 -119 140 -119l268 -25c100 0 168 -59 168 -144c0 -20 -4 -43 -12 -66c-26 -71 -83 -140 -157 -177c-104 -52 -209 -58 -308 -58
c-130 0 -287 21 -306 144l48 20c16 -108 159 -123 273 -123c87 0 179 4 270 48c63 30 112 86 134 146c7 19 10 37 10 53c0 69 -54 116 -135 116l-268 25c-102 0 -173 60 -173 147c0 21 5 43 13 66c25 69 79 136 151 172c100 51 200 56 296 56c122 0 266 -19 292 -127z" />
    <glyph glyph-name="Uhungarumlaut" unicode="&#x170;" horiz-adv-x="1105" 
d="M250 193c0 -142 180 -162 314 -162c98 0 200 8 303 57c72 34 134 96 159 164l215 598h45l-215 -598c-29 -80 -98 -152 -181 -194c-115 -58 -231 -68 -341 -68c-153 0 -347 26 -347 188c0 24 4 48 13 74l216 598h45l-216 -598c-7 -21 -10 -40 -10 -59zM610 914l222 170h53
l-235 -170h-40zM1111 1084h53l-235 -170h-40z" />
    <glyph glyph-name="Atilde" unicode="&#xc3;" horiz-adv-x="1032" 
d="M19 0l753 850h100l142 -850h-46l-50 297h-579l-264 -297h-56zM541 918h-36c13 35 41 68 77 88c46 26 95 31 140 31c63 0 79 -70 142 -70c35 0 72 4 109 22c26 13 49 36 58 61h36c-13 -35 -41 -68 -77 -88c-46 -26 -94 -31 -139 -31c-63 0 -79 70 -142 70
c-35 0 -73 -4 -110 -22c-26 -13 -49 -36 -58 -61zM912 338l-85 510l-452 -510h537z" />
    <glyph glyph-name="Dcaron" unicode="&#x10e;" horiz-adv-x="1172" 
d="M782 850c224 0 476 -49 476 -287c0 -44 -9 -90 -26 -138c-45 -124 -143 -244 -270 -315c-161 -91 -329 -110 -486 -110h-346l306 850h346zM1005 1084h45l-272 -170h-62l-150 170h46l143 -147zM1209 547c0 219 -236 262 -442 262h-300l-277 -768h301c145 0 299 18 448 100
c116 64 207 171 248 284c15 42 22 83 22 122z" />
    <glyph glyph-name="equal" unicode="=" horiz-adv-x="911" 
d="M206 366l15 41h763l-15 -41h-763zM127 145l14 41h763l-15 -41h-762z" />
    <glyph glyph-name="C" unicode="C" horiz-adv-x="1256" 
d="M256 289c0 -210 209 -258 406 -258c137 0 284 20 423 102c47 28 89 63 125 102l31 -23c-39 -42 -83 -79 -133 -109c-151 -91 -312 -113 -461 -113s-293 22 -379 113c-41 44 -60 104 -60 170c0 48 10 100 29 152c45 125 137 246 263 322c151 91 312 113 461 113
c195 0 397 -44 433 -222l-47 -23c-33 164 -222 204 -401 204c-137 0 -284 -20 -423 -102c-115 -68 -200 -179 -241 -292c-17 -47 -26 -93 -26 -136z" />
    <glyph glyph-name="Eth" unicode="&#xd0;" horiz-adv-x="1246" 
d="M856 850c224 0 476 -49 476 -287c0 -44 -9 -90 -26 -138c-45 -124 -143 -244 -270 -315c-161 -91 -329 -110 -486 -110h-345l145 404h-139l14 42h140l146 404h345zM1284 547c0 219 -237 262 -443 262h-300l-131 -363h429l-14 -42h-430l-131 -363h301
c145 0 300 18 449 100c116 64 206 171 247 284c15 42 23 83 23 122z" />
    <glyph glyph-name="edieresis" unicode="&#xeb;" horiz-adv-x="921" 
d="M204 196c0 -137 144 -165 272 -165c88 0 181 7 274 51c29 14 57 33 80 55l27 -27c-25 -23 -53 -43 -84 -58c-105 -52 -212 -62 -312 -62c-146 0 -305 34 -305 190c0 30 6 63 18 96c30 83 94 163 178 212c104 60 214 74 316 74c146 0 305 -33 305 -189
c0 -30 -6 -64 -18 -97l-7 -20h-736c-6 -21 -8 -41 -8 -60zM541 753c0 23 22 47 47 47c17 0 24 -9 24 -20c0 -13 -10 -30 -20 -38c-9 -6 -19 -8 -28 -8c-17 0 -23 8 -23 19zM875 754c0 24 23 46 48 46c17 0 24 -9 24 -20c0 -13 -10 -30 -20 -38c-9 -6 -19 -8 -28 -8
c-17 0 -24 9 -24 20zM925 356c0 137 -144 166 -272 166c-90 0 -187 -12 -279 -64c-66 -37 -119 -97 -147 -161h689c6 21 9 40 9 59z" />
    <glyph glyph-name="ccaron" unicode="&#x10d;" horiz-adv-x="889" 
d="M204 196c0 -137 144 -165 272 -165c90 0 187 12 279 64c33 19 63 42 88 70l32 -21c-28 -31 -61 -59 -98 -80c-104 -60 -214 -74 -316 -74c-146 0 -305 34 -305 190c0 30 6 63 18 96c30 83 94 163 178 212c104 60 214 74 316 74c135 0 279 -28 302 -153l-48 -22
c-20 111 -150 135 -269 135c-90 0 -187 -12 -279 -64c-73 -41 -129 -110 -155 -182c-10 -28 -15 -55 -15 -80zM967 843h46l-272 -170h-62l-150 170h46l143 -147z" />
    <glyph glyph-name="cacute" unicode="&#x107;" horiz-adv-x="889" 
d="M204 196c0 -137 144 -165 272 -165c90 0 187 12 279 64c33 19 63 42 88 70l32 -21c-28 -31 -61 -59 -98 -80c-104 -60 -214 -74 -316 -74c-146 0 -305 34 -305 190c0 30 6 63 18 96c30 83 94 163 178 212c104 60 214 74 316 74c135 0 279 -28 302 -153l-48 -22
c-20 111 -150 135 -269 135c-90 0 -187 -12 -279 -64c-73 -41 -129 -110 -155 -182c-10 -28 -15 -55 -15 -80zM897 843h55l-250 -170h-41z" />
    <glyph glyph-name="odieresis" unicode="&#xf6;" horiz-adv-x="930" 
d="M541 753c0 23 22 47 47 47c17 0 24 -9 24 -20c0 -13 -10 -30 -20 -38c-9 -6 -19 -8 -28 -8c-17 0 -23 8 -23 19zM875 754c0 24 23 46 48 46c17 0 24 -9 24 -20c0 -13 -10 -30 -20 -38c-9 -6 -19 -8 -28 -8c-17 0 -24 9 -24 20zM925 356c0 137 -144 166 -272 166
c-90 0 -187 -12 -279 -64c-73 -41 -129 -110 -155 -182c-10 -28 -15 -55 -15 -80c0 -137 144 -165 272 -165c90 0 187 12 279 64c73 41 129 109 155 181c10 28 15 55 15 80zM461 -10c-146 0 -305 34 -305 190c0 30 6 63 18 96c30 83 94 163 178 212c104 60 214 74 316 74
c146 0 305 -33 305 -189c0 -30 -6 -64 -18 -97c-30 -83 -94 -163 -178 -212c-104 -60 -214 -74 -316 -74z" />
    <glyph glyph-name="four" unicode="4" horiz-adv-x="921" 
d="M744 234l-84 -234h-46l85 234h-557l36 100l688 516h100l-207 -574h203l-15 -42h-203zM714 276l203 565l-754 -565h551z" />
    <glyph glyph-name="adieresis" unicode="&#xe4;" 
d="M621 562c125 0 276 -23 276 -156c0 -21 -5 -45 -13 -68l-121 -338h-45l32 90c-23 -23 -51 -42 -81 -55c-86 -39 -172 -45 -254 -45c-87 0 -174 6 -238 45c-31 19 -51 49 -51 87c0 13 2 28 7 42c20 56 76 102 136 128c92 39 184 46 271 46c104 0 237 -12 263 -101l36 101
c7 18 10 35 10 52c0 113 -136 132 -243 132c-77 0 -158 -8 -238 -48c-18 -9 -36 -21 -52 -34l-22 30c16 13 33 24 51 34c92 49 187 58 276 58zM494 754c0 24 23 46 48 46c17 0 24 -9 24 -20c0 -13 -10 -30 -20 -38c-9 -6 -19 -8 -28 -8c-17 0 -24 9 -24 20zM829 754
c0 24 23 46 48 46c17 0 23 -9 23 -20c0 -24 -21 -46 -47 -46c-17 0 -24 9 -24 20zM525 297c-75 0 -153 -4 -233 -35c-49 -19 -98 -53 -114 -98c-4 -10 -5 -20 -5 -29c0 -31 21 -54 48 -69c58 -31 134 -35 209 -35s153 4 233 35c49 19 97 53 113 98c4 10 6 19 6 28
c0 31 -21 55 -48 70c-58 31 -134 35 -209 35z" />
    <glyph glyph-name="Ydieresis" unicode="&#x178;" horiz-adv-x="967" 
d="M315 850h51l241 -479l587 479h70l-640 -523l-118 -327h-45l118 327zM631 1021c0 -24 -23 -46 -48 -46c-17 0 -24 9 -24 20c0 13 10 30 20 38c9 6 19 8 28 8c17 0 24 -9 24 -20zM965 1022c0 -23 -22 -47 -47 -47c-17 0 -24 9 -24 20c0 13 10 30 20 38c9 6 19 8 28 8
c17 0 23 -8 23 -19z" />
    <glyph glyph-name="Thorn" unicode="&#xde;" horiz-adv-x="967" 
d="M130 0l306 850h45l-54 -149h303c106 0 211 -9 285 -61c36 -25 57 -65 57 -112c0 -19 -3 -39 -11 -60c-26 -73 -93 -137 -170 -173c-111 -52 -223 -61 -329 -61h-302l-85 -234h-45zM413 660l-139 -384h303c94 0 193 6 292 49c65 29 125 82 147 143c6 16 9 31 9 46
c0 41 -21 75 -54 96c-68 43 -162 50 -256 50h-302z" />
    <glyph glyph-name="cedilla" unicode="&#xb8;" horiz-adv-x="372" 
d="M-75 -235c24 -41 101 -45 160 -45c84 0 200 17 225 87c2 7 4 13 4 19c0 20 -13 36 -31 45c-38 20 -86 23 -135 23h-34l61 122h34l-45 -90c76 0 188 -10 188 -90c0 -9 -1 -19 -5 -29c-14 -38 -51 -70 -92 -88c-62 -27 -122 -31 -181 -31c-68 0 -151 6 -182 53z" />
    <glyph glyph-name="p" unicode="p" horiz-adv-x="949" 
d="M489 -10c-133 0 -267 35 -275 170l-165 -460h-45l306 852h46l-58 -159c29 37 64 70 105 95c95 59 197 74 292 74c143 0 297 -34 297 -187c0 -31 -6 -65 -18 -99c-30 -82 -92 -163 -176 -212c-102 -60 -209 -74 -309 -74zM944 358c0 134 -137 164 -263 164
c-88 0 -182 -12 -272 -64c-72 -42 -127 -111 -153 -182c-10 -28 -15 -56 -15 -82c0 -134 137 -163 263 -163c88 0 182 12 272 64c72 42 127 110 153 181c10 28 15 56 15 82z" />
    <glyph glyph-name="semicolon" unicode=";" horiz-adv-x="446" 
d="M276 110h77l-362 -276h-57zM429 508c0 24 20 44 45 44c16 0 22 -8 22 -19c0 -24 -20 -45 -45 -45c-16 0 -22 9 -22 20z" />
    <glyph glyph-name="Idieresis" unicode="&#xcf;" horiz-adv-x="343" 
d="M149 0l306 850h45l-306 -850h-45zM318 1022c0 -23 -22 -47 -47 -47c-17 0 -24 9 -24 20c0 13 10 30 20 38c9 6 19 8 28 8c17 0 23 -8 23 -19zM653 1021c0 -23 -23 -46 -47 -46c-17 0 -24 9 -24 20c0 13 10 30 20 38c9 6 18 8 27 8c17 0 24 -9 24 -20z" />
    <glyph glyph-name="U" unicode="U" horiz-adv-x="1105" 
d="M250 193c0 -142 180 -162 314 -162c98 0 200 8 303 57c72 34 134 96 159 164l215 598h45l-215 -598c-29 -80 -98 -152 -181 -194c-115 -58 -231 -68 -341 -68c-153 0 -347 26 -347 188c0 24 4 48 13 74l216 598h45l-216 -598c-7 -21 -10 -40 -10 -59z" />
    <glyph glyph-name="Agrave" unicode="&#xc0;" horiz-adv-x="1032" 
d="M19 0l753 850h100l142 -850h-46l-50 297h-579l-264 -297h-56zM641 1084h55l113 -170h-41zM912 338l-85 510l-452 -510h537z" />
    <glyph glyph-name="dollar" unicode="$" horiz-adv-x="967" 
d="M146 134l47 21c5 -31 23 -56 49 -73c65 -44 156 -51 248 -51c93 0 191 4 289 48c64 29 118 85 140 146c7 18 10 37 10 53c0 70 -58 116 -141 116h-8l-288 25h-10c-105 0 -178 59 -178 147c0 21 4 43 12 66c25 70 85 137 158 172c99 48 197 55 292 56l58 160h45l-58 -160
c121 -2 263 -23 292 -127l-46 -24c-7 25 -23 46 -45 61c-62 42 -150 49 -238 49c-90 0 -183 -3 -277 -46c-62 -28 -115 -82 -136 -141c-7 -19 -9 -36 -9 -53c0 -72 60 -119 145 -119h9l287 -25h10c102 0 174 -57 174 -144c0 -20 -4 -43 -12 -66c-26 -73 -88 -141 -164 -177
c-103 -49 -204 -57 -303 -58l-58 -160h-45l58 160c-129 2 -285 25 -307 144z" />
    <glyph glyph-name="ncaron" unicode="&#x148;" horiz-adv-x="884" 
d="M877 414c0 91 -100 108 -185 108c-88 0 -179 -5 -272 -41c-57 -22 -113 -63 -132 -116l-131 -365h-45l198 552h46l-40 -109c27 28 62 52 98 68c99 44 199 51 293 51c103 0 218 -22 218 -132c0 -20 -4 -43 -12 -65l-132 -365h-45l132 365c6 17 9 34 9 49zM949 843h45
l-272 -170h-62l-150 170h46l144 -147z" />
    <glyph glyph-name="Ograve" unicode="&#xd2;" horiz-adv-x="1302" 
d="M776 1084h55l113 -170h-41zM1352 561c0 210 -209 258 -406 258c-137 0 -284 -20 -423 -102c-115 -68 -200 -179 -241 -292c-17 -47 -26 -93 -26 -136c0 -210 209 -258 406 -258c137 0 284 20 423 102c115 68 200 179 241 292c17 47 26 93 26 136zM961 860
c149 0 293 -22 379 -113c41 -44 60 -104 60 -170c0 -48 -10 -100 -29 -152c-45 -125 -137 -246 -263 -322c-151 -91 -312 -113 -461 -113s-293 22 -379 113c-41 44 -60 104 -60 170c0 48 10 100 29 152c45 125 137 246 263 322c151 91 312 113 461 113z" />
    <glyph glyph-name="Icircumflex" unicode="&#xce;" horiz-adv-x="343" 
d="M149 0l306 850h45l-306 -850h-45zM469 1061l-249 -147h-46l273 170h61l150 -170h-45z" />
    <glyph glyph-name="e" unicode="e" horiz-adv-x="921" 
d="M204 196c0 -137 144 -165 272 -165c88 0 181 7 274 51c29 14 57 33 80 55l27 -27c-25 -23 -53 -43 -84 -58c-105 -52 -212 -62 -312 -62c-146 0 -305 34 -305 190c0 30 6 63 18 96c30 83 94 163 178 212c104 60 214 74 316 74c146 0 305 -33 305 -189
c0 -30 -6 -64 -18 -97l-7 -20h-736c-6 -21 -8 -41 -8 -60zM925 356c0 137 -144 166 -272 166c-90 0 -187 -12 -279 -64c-66 -37 -119 -97 -147 -161h689c6 21 9 40 9 59z" />
    <glyph glyph-name="breve" unicode="&#x2d8;" horiz-adv-x="391" 
d="M744 809c-13 -37 -55 -63 -95 -77c-69 -24 -135 -28 -200 -28s-130 4 -181 28c-24 11 -43 30 -43 56c0 7 1 14 4 21h36c-2 -4 -2 -8 -2 -12c0 -20 21 -32 42 -39c47 -16 102 -17 157 -17s111 1 170 17c31 9 66 23 76 51h36z" />
    <glyph glyph-name="ampersand" unicode="&#x26;" horiz-adv-x="1153" 
d="M552 434c-85 15 -185 53 -185 149c0 16 3 32 9 49c26 71 93 134 169 169c111 51 222 59 328 59s210 -8 285 -59c21 -14 37 -34 47 -57l-44 -27c-9 22 -26 40 -47 53c-69 42 -162 49 -256 49s-192 -7 -291 -49c-64 -28 -123 -78 -145 -138c-6 -16 -9 -30 -9 -44
c0 -40 22 -74 55 -94c69 -42 162 -48 256 -48h541l-15 -42h-126l-146 -404h-415c-106 0 -211 8 -286 58c-36 24 -58 63 -58 109c0 18 3 36 10 56c25 70 92 131 167 165c52 24 104 38 156 46zM1078 404h-369c-94 0 -191 -6 -290 -47c-63 -27 -124 -75 -145 -134
c-5 -15 -8 -30 -8 -43c0 -40 23 -72 56 -92c69 -41 162 -47 256 -47h370z" />
    <glyph glyph-name="d" unicode="d" horiz-adv-x="958" 
d="M658 562c133 0 267 -34 275 -169l201 557h45l-342 -950h-45l57 160c-29 -37 -64 -71 -105 -96c-95 -59 -197 -74 -292 -74c-143 0 -297 35 -297 188c0 31 7 64 19 98c30 82 91 163 175 212c102 60 209 74 309 74zM907 358c0 134 -138 164 -264 164
c-88 0 -181 -12 -271 -64c-72 -42 -127 -111 -153 -182c-10 -28 -16 -56 -16 -82c0 -134 138 -163 264 -163c88 0 182 12 272 64c71 41 128 110 152 181c10 28 16 56 16 82z" />
    <glyph glyph-name="dotlessi" unicode="&#x131;" horiz-adv-x="353" 
d="M154 0l199 552h45l-199 -552h-45z" />
    <glyph glyph-name="Oslash" unicode="&#xd8;" horiz-adv-x="1302" 
d="M946 819c-137 0 -284 -20 -423 -102c-115 -68 -200 -179 -241 -292c-17 -47 -26 -93 -26 -136c0 -54 14 -102 43 -140l984 580c-81 72 -207 90 -337 90zM961 860c144 0 282 -20 369 -103l158 93h74l-207 -122c31 -41 45 -94 45 -151c0 -48 -10 -100 -29 -152
c-45 -125 -137 -246 -263 -322c-151 -91 -312 -113 -461 -113c-144 0 -282 20 -369 103l-158 -93h-74l207 122c-31 41 -45 94 -45 151c0 48 10 100 29 152c45 125 137 246 263 322c151 91 312 113 461 113zM325 121c81 -72 207 -90 337 -90c137 0 284 20 423 102
c115 68 200 179 241 292c17 47 26 93 26 136c0 54 -14 102 -43 140z" />
    <glyph glyph-name="Acircumflex" unicode="&#xc2;" horiz-adv-x="1032" 
d="M19 0l753 850h100l142 -850h-46l-50 297h-579l-264 -297h-56zM912 338l-85 510l-452 -510h537zM814 1061l-249 -147h-46l272 170h62l150 -170h-46z" />
    <glyph glyph-name="w" unicode="w" horiz-adv-x="1200" 
d="M208 552h47l157 -546l249 247l-86 299h47l75 -262l265 262h60l-311 -309l68 -237l550 546h60l-556 -552h-100l-59 207l-208 -207h-100z" />
    <glyph glyph-name="braceright" unicode="}" horiz-adv-x="567" 
d="M472 419c0 -72 62 -94 129 -94l-17 -45c-46 0 -97 -10 -142 -41c-43 -29 -71 -73 -87 -117l-65 -180c-41 -114 -181 -194 -307 -237l-1 38c107 37 228 102 263 199l65 180c20 56 56 112 110 150c18 13 37 22 56 30c-32 18 -53 52 -53 98c0 26 7 54 17 83l65 180
c6 17 8 32 8 47c0 74 -68 125 -128 152l28 38c69 -32 147 -91 147 -179c0 -18 -3 -38 -10 -58l-65 -180c-8 -22 -13 -44 -13 -64z" />
    <glyph glyph-name="nacute" unicode="&#x144;" horiz-adv-x="884" 
d="M877 414c0 91 -100 108 -185 108c-88 0 -179 -5 -272 -41c-57 -22 -113 -63 -132 -116l-131 -365h-45l198 552h46l-40 -109c27 28 62 52 98 68c99 44 199 51 293 51c103 0 218 -22 218 -132c0 -20 -4 -43 -12 -65l-132 -365h-45l132 365c6 17 9 34 9 49zM878 843h55
l-249 -170h-41z" />
    <glyph glyph-name="lslash" unicode="&#x142;" horiz-adv-x="428" 
d="M385 538l148 412h45l-141 -392l228 85l-19 -51l-227 -85l-183 -507h-45l176 487l-228 -85l19 51z" />
    <glyph glyph-name="Ccaron" unicode="&#x10c;" horiz-adv-x="1256" 
d="M256 289c0 -210 209 -258 406 -258c137 0 284 20 423 102c47 28 89 63 125 102l31 -23c-39 -42 -83 -79 -133 -109c-151 -91 -312 -113 -461 -113s-293 22 -379 113c-41 44 -60 104 -60 170c0 48 10 100 29 152c45 125 137 246 263 322c151 91 312 113 461 113
c195 0 397 -44 433 -222l-47 -23c-33 164 -222 204 -401 204c-137 0 -284 -20 -423 -102c-115 -68 -200 -179 -241 -292c-17 -47 -26 -93 -26 -136zM1153 1084h46l-272 -170h-62l-150 170h46l143 -147z" />
    <glyph glyph-name="Uacute" unicode="&#xda;" horiz-adv-x="1105" 
d="M250 193c0 -142 180 -162 314 -162c98 0 200 8 303 57c72 34 134 96 159 164l215 598h45l-215 -598c-29 -80 -98 -152 -181 -194c-115 -58 -231 -68 -341 -68c-153 0 -347 26 -347 188c0 24 4 48 13 74l216 598h45l-216 -598c-7 -21 -10 -40 -10 -59zM984 1084h55
l-249 -170h-41z" />
    <glyph glyph-name="v" unicode="v" horiz-adv-x="781" 
d="M208 552h47l130 -544l523 544h63l-530 -552h-100z" />
    <glyph glyph-name="E" unicode="E" horiz-adv-x="865" 
d="M130 0l306 850h670l-15 -41h-624l-131 -363h602l-15 -42h-602l-131 -363h625l-15 -41h-670z" />
    <glyph glyph-name="B" unicode="B" horiz-adv-x="977" 
d="M818 850c127 0 295 -19 295 -154c0 -18 -4 -38 -11 -58c-36 -101 -157 -164 -277 -183c44 -9 83 -24 115 -49s49 -62 49 -106c0 -21 -4 -44 -12 -67c-26 -71 -87 -135 -161 -172c-102 -51 -206 -61 -304 -61h-382l306 850h382zM1065 681c0 114 -153 128 -262 128h-336
l-124 -342h337c81 0 164 6 249 44c57 26 109 73 128 127c5 15 8 29 8 43zM941 285c0 124 -159 141 -276 141h-336l-139 -385h336c86 0 177 7 267 50c63 30 118 82 139 142c6 18 9 36 9 52z" />
    <glyph glyph-name="s" unicode="s" horiz-adv-x="744" 
d="M104 93l46 21c4 -24 21 -42 43 -53c53 -27 122 -30 190 -30c70 0 141 1 215 29c43 16 84 48 98 88c4 11 6 21 6 31c0 44 -38 72 -92 72c-7 0 -14 0 -22 -1l-221 14c-11 -1 -20 -2 -30 -2c-75 0 -128 40 -128 102c0 14 2 29 8 45c18 49 64 94 116 116c82 35 163 37 241 37
c77 0 154 -4 210 -39c20 -12 35 -31 41 -53l-46 -24c-5 20 -20 36 -40 46c-50 26 -114 30 -179 30c-66 0 -134 -1 -204 -28c-41 -16 -79 -47 -93 -85c-4 -11 -6 -22 -6 -32c0 -45 39 -74 95 -74c8 0 16 1 24 2l220 -14c10 1 20 2 30 2c73 0 124 -39 124 -100
c0 -14 -3 -29 -9 -45c-18 -51 -66 -96 -120 -119c-86 -37 -171 -39 -253 -39c-80 0 -160 5 -219 41c-23 14 -40 36 -45 62z" />
    <glyph glyph-name="OE" unicode="&#x152;" horiz-adv-x="1562" 
d="M855 819c-116 0 -243 -24 -356 -102c-107 -73 -178 -183 -217 -292c-20 -55 -32 -109 -32 -159s12 -96 39 -133c57 -78 166 -102 282 -102s243 24 356 102c107 73 178 183 217 292c20 55 31 109 31 159s-11 96 -38 133c-57 78 -166 102 -282 102zM870 860
c173 0 332 -53 352 -220l75 210h506l-14 -41h-462l-130 -363h438l-15 -42h-438l-131 -363h461l-15 -41h-506l76 210c-34 -40 -72 -76 -117 -107c-125 -86 -266 -113 -394 -113s-248 27 -311 113c-30 40 -43 91 -43 146s13 116 35 176c43 120 121 241 239 322
c125 86 266 113 394 113z" />
    <glyph glyph-name="caron" unicode="&#x2c7;" horiz-adv-x="391" 
d="M698 850h45l-272 -170h-62l-150 170h46l143 -147z" />
    <glyph glyph-name="eth" unicode="&#xf0;" horiz-adv-x="976" 
d="M681 562c130 0 267 -27 293 -144c5 32 8 64 8 95c0 98 -25 186 -72 259l-359 -82l16 45l317 73c-53 65 -126 114 -218 142h89c72 -31 132 -76 176 -132l262 60l-17 -46l-219 -50c47 -74 71 -164 71 -263c0 -77 -15 -158 -45 -243c-30 -84 -96 -164 -181 -212
c-108 -61 -222 -74 -327 -74c-150 0 -319 33 -319 193c0 29 6 61 18 93c30 84 96 164 181 212c108 61 221 74 326 74zM205 199c0 -141 153 -168 285 -168c93 0 193 11 289 64c74 41 133 109 159 181c10 27 14 53 14 77c0 141 -153 169 -285 169c-93 0 -193 -11 -289 -64
c-74 -41 -133 -110 -159 -182c-10 -27 -14 -53 -14 -77z" />
    <glyph glyph-name="Rcaron" unicode="&#x158;" horiz-adv-x="939" 
d="M784 850c146 0 339 -22 339 -177c0 -21 -4 -44 -12 -67c-27 -75 -94 -143 -173 -181c-68 -33 -135 -49 -202 -57l194 -368h-53l-189 364c-27 -2 -54 -2 -80 -2h-302l-131 -362h-45l306 850h348zM930 1084h46l-273 -170h-61l-150 170h45l144 -147zM467 809l-147 -406h303
c94 0 194 8 293 53c67 31 127 86 150 150c7 18 9 36 9 52c0 41 -19 76 -51 98c-66 45 -161 53 -255 53h-302z" />
    <glyph glyph-name="zacute" unicode="&#x17a;" horiz-adv-x="688" 
d="M231 512l14 40h596l-15 -40h-595zM776 843h55l-250 -170h-40zM61 41h-6l8 4zM61 41h595l-14 -41h-596zM63 45l19 55l742 408l-19 -56zM824 508l2 4h6z" />
    <glyph glyph-name="uring" unicode="&#x16f;" horiz-adv-x="884" 
d="M208 148c0 -105 141 -117 240 -117c74 0 151 6 229 41c52 24 99 66 117 115l132 365h45l-199 -552h-45l37 103c-23 -25 -51 -46 -81 -62c-84 -43 -168 -51 -249 -51c-118 0 -274 18 -274 143c0 17 3 35 10 54l131 365h45l-131 -365c-5 -14 -7 -27 -7 -39zM827 779
c0 43 -49 50 -89 50c-29 0 -58 -3 -88 -19c-22 -12 -40 -31 -48 -52c-3 -7 -4 -15 -4 -22c0 -43 49 -50 89 -50c29 0 58 3 88 19c22 12 40 32 48 53c3 7 4 14 4 21zM677 659c-52 0 -111 11 -111 67c0 10 2 21 6 32c10 29 33 56 63 73c38 21 76 25 113 25
c52 0 111 -11 111 -67c0 -10 -2 -20 -6 -31c-10 -29 -33 -56 -63 -73c-38 -21 -76 -26 -113 -26z" />
    <glyph glyph-name="I" unicode="I" horiz-adv-x="343" 
d="M149 0l306 850h45l-306 -850h-45z" />
    <glyph glyph-name="ntilde" unicode="&#xf1;" horiz-adv-x="884" 
d="M877 414c0 91 -100 108 -185 108c-88 0 -179 -5 -272 -41c-57 -22 -113 -63 -132 -116l-131 -365h-45l198 552h46l-40 -109c27 28 62 52 98 68c99 44 199 51 293 51c103 0 218 -22 218 -132c0 -20 -4 -43 -12 -65l-132 -365h-45l132 365c6 17 9 34 9 49zM472 677h-36
c13 35 40 68 76 88c46 26 95 31 140 31c63 0 79 -70 142 -70c35 0 73 3 110 21c26 13 48 37 57 62h36c-13 -35 -40 -69 -76 -89c-46 -26 -95 -30 -140 -30c-63 0 -79 69 -142 69c-35 0 -73 -3 -110 -21c-26 -13 -48 -36 -57 -61z" />
    <glyph glyph-name="Uring" unicode="&#x16e;" horiz-adv-x="1105" 
d="M250 193c0 -142 180 -162 314 -162c98 0 200 8 303 57c72 34 134 96 159 164l215 598h45l-215 -598c-29 -80 -98 -152 -181 -194c-115 -58 -231 -68 -341 -68c-153 0 -347 26 -347 188c0 24 4 48 13 74l216 598h45l-216 -598c-7 -21 -10 -40 -10 -59zM942 1020
c0 43 -48 50 -88 50c-29 0 -59 -2 -89 -18c-22 -12 -40 -32 -48 -53c-3 -7 -4 -15 -4 -22c0 -43 49 -50 89 -50c29 0 59 3 89 19c22 12 39 32 47 53c3 7 4 14 4 21zM792 900c-52 0 -111 11 -111 67c0 10 2 21 6 32c10 29 33 56 63 73c38 21 76 25 113 25
c52 0 111 -10 111 -66c0 -10 -2 -21 -6 -32c-10 -29 -32 -56 -62 -73c-38 -21 -77 -26 -114 -26z" />
    <glyph glyph-name="tcedilla" unicode="&#x163;" horiz-adv-x="502" 
d="M-9 -235c24 -41 100 -45 159 -45c84 0 201 17 226 87c2 7 3 13 3 19c0 20 -13 36 -31 45c-38 20 -86 23 -135 23h-34l53 106h-3l184 512h-218l15 40h217l144 398h45l-143 -398h217l-15 -40h-217l-184 -512h-8l-37 -74c76 0 188 -10 188 -90c0 -9 -1 -19 -5 -29
c-14 -38 -51 -70 -92 -88c-62 -27 -122 -31 -181 -31c-68 0 -151 6 -182 53z" />
    <glyph glyph-name="ucircumflex" unicode="&#xfb;" horiz-adv-x="884" 
d="M208 148c0 -105 141 -117 240 -117c74 0 151 6 229 41c52 24 99 66 117 115l132 365h45l-199 -552h-45l37 103c-23 -25 -51 -46 -81 -62c-84 -43 -168 -51 -249 -51c-118 0 -274 18 -274 143c0 17 3 35 10 54l131 365h45l-131 -365c-5 -14 -7 -27 -7 -39zM735 820
l-250 -147h-45l272 170h62l150 -170h-46z" />
    <glyph glyph-name="Egrave" unicode="&#xc8;" horiz-adv-x="865" 
d="M130 0l306 850h670l-15 -41h-624l-131 -363h602l-15 -42h-602l-131 -363h625l-15 -41h-670zM590 1084h55l113 -170h-41z" />
    <glyph glyph-name="j" unicode="j" horiz-adv-x="391" 
d="M-206 -217c24 -43 88 -52 146 -52c51 0 106 6 159 35c41 22 72 60 86 100l248 686h45l-247 -686c-18 -51 -58 -100 -110 -130c-64 -37 -132 -46 -195 -46c-70 0 -144 11 -175 61zM456 754c0 24 23 46 48 46c17 0 23 -9 23 -20c0 -24 -21 -46 -47 -46c-17 0 -24 9 -24 20z
" />
    <glyph glyph-name="Oacute" unicode="&#xd3;" horiz-adv-x="1302" 
d="M1083 1084h55l-250 -170h-41zM1352 561c0 210 -209 258 -406 258c-137 0 -284 -20 -423 -102c-115 -68 -200 -179 -241 -292c-17 -47 -26 -93 -26 -136c0 -210 209 -258 406 -258c137 0 284 20 423 102c115 68 200 179 241 292c17 47 26 93 26 136zM961 860
c149 0 293 -22 379 -113c41 -44 60 -104 60 -170c0 -48 -10 -100 -29 -152c-45 -125 -137 -246 -263 -322c-151 -91 -312 -113 -461 -113s-293 22 -379 113c-41 44 -60 104 -60 170c0 48 10 100 29 152c45 125 137 246 263 322c151 91 312 113 461 113z" />
    <glyph glyph-name="ae" unicode="&#xe6;" horiz-adv-x="1376" 
d="M775 398c0 102 -106 124 -202 124c-67 0 -138 -9 -207 -48c-16 -9 -31 -20 -44 -32l-25 28c14 13 30 24 47 34c80 47 165 58 244 58c113 0 235 -27 236 -146c23 27 50 52 81 72c88 58 185 74 274 74c129 0 253 -39 253 -176c0 -35 -7 -72 -21 -110l-8 -20h-623
c-7 -25 -11 -50 -11 -73c0 -119 108 -152 219 -152c75 0 155 9 232 51c25 14 49 32 69 52l30 -24c-22 -23 -48 -42 -76 -58c-89 -50 -183 -62 -270 -62c-114 0 -225 29 -248 132c-25 -36 -62 -67 -103 -87c-81 -39 -163 -45 -240 -45c-106 0 -248 15 -248 127
c0 15 3 31 9 47c19 54 68 101 124 128c81 39 163 46 240 46c93 0 202 -15 223 -96l34 96c8 21 11 41 11 60zM707 196c0 91 -129 101 -215 101c-65 0 -133 -5 -202 -35c-45 -20 -87 -55 -102 -98c-4 -11 -6 -22 -6 -32c0 -91 129 -101 215 -101c65 0 133 5 202 35
c45 20 87 55 102 98c4 11 6 22 6 32zM1384 370c0 119 -108 152 -219 152c-77 0 -160 -14 -237 -64c-61 -40 -107 -99 -133 -161h577c7 25 12 50 12 73z" />
    <glyph glyph-name="c" unicode="c" horiz-adv-x="889" 
d="M204 196c0 -137 144 -165 272 -165c90 0 187 12 279 64c33 19 63 42 88 70l32 -21c-28 -31 -61 -59 -98 -80c-104 -60 -214 -74 -316 -74c-146 0 -305 34 -305 190c0 30 6 63 18 96c30 83 94 163 178 212c104 60 214 74 316 74c135 0 279 -28 302 -153l-48 -22
c-20 111 -150 135 -269 135c-90 0 -187 -12 -279 -64c-73 -41 -129 -110 -155 -182c-10 -28 -15 -55 -15 -80z" />
    <glyph glyph-name="Lcaron" unicode="&#x13d;" horiz-adv-x="856" 
d="M130 0l306 850h45l-291 -809h625l-15 -41h-670zM904 850h57l-261 -276h-42z" />
    <glyph glyph-name="D" unicode="D" horiz-adv-x="1172" 
d="M782 850c224 0 476 -49 476 -287c0 -44 -9 -90 -26 -138c-45 -124 -143 -244 -270 -315c-161 -91 -329 -110 -486 -110h-346l306 850h346zM1209 547c0 219 -236 262 -442 262h-300l-277 -768h301c145 0 299 18 448 100c116 64 207 171 248 284c15 42 22 83 22 122z" />
    <glyph glyph-name="icircumflex" unicode="&#xee;" horiz-adv-x="353" 
d="M154 0l199 552h45l-199 -552h-45zM474 820l-249 -147h-46l273 170h61l151 -170h-46z" />
    <glyph glyph-name="gbreve" unicode="&#x11f;" horiz-adv-x="949" 
d="M658 562c132 0 267 -33 276 -166l57 156h45l-229 -635c-25 -69 -86 -132 -159 -168c-102 -50 -206 -59 -304 -59c-115 0 -249 14 -295 99l44 30c39 -77 163 -88 266 -88c86 0 176 6 266 48c61 28 116 80 137 138l90 250c-29 -36 -63 -69 -104 -94
c-95 -58 -198 -73 -292 -73c-143 0 -298 34 -298 186c0 30 6 62 18 95c29 81 91 160 174 208c102 59 208 73 308 73zM1004 802c-13 -37 -55 -64 -95 -78c-69 -24 -135 -27 -200 -27s-129 3 -180 27c-24 11 -43 30 -43 56c0 7 1 15 4 22h36c-2 -4 -2 -9 -2 -13
c0 -20 20 -31 41 -38c47 -16 102 -18 157 -18s111 2 170 18c31 9 66 23 76 51h36zM908 360c0 133 -140 162 -265 162c-88 0 -181 -12 -271 -63c-71 -41 -126 -108 -151 -178c-10 -27 -15 -54 -15 -79c0 -133 139 -161 264 -161c88 0 182 11 272 62c71 41 126 108 151 178
c11 26 15 55 15 79z" />
    <glyph glyph-name="ij" unicode="&#x133;" horiz-adv-x="856" 
d="M366 552h45l-199 -552h-45zM238 -217c26 -44 95 -52 156 -52c54 0 111 6 167 35c42 22 75 60 89 100l248 686h45l-247 -686c-19 -52 -60 -101 -113 -130c-68 -38 -138 -46 -204 -46c-73 0 -150 11 -184 61zM924 755c0 24 23 46 48 46c17 0 24 -9 24 -20
c0 -13 -10 -30 -20 -38c-9 -6 -19 -8 -28 -8c-17 0 -24 9 -24 20zM469 754c0 23 22 47 47 47c17 0 24 -9 24 -20c0 -13 -10 -30 -20 -38c-9 -6 -19 -8 -28 -8c-17 0 -23 8 -23 19z" />
    <glyph glyph-name="n" unicode="n" horiz-adv-x="884" 
d="M877 414c0 91 -100 108 -185 108c-88 0 -179 -5 -272 -41c-57 -22 -113 -63 -132 -116l-131 -365h-45l198 552h46l-40 -109c27 28 62 52 98 68c99 44 199 51 293 51c103 0 218 -22 218 -132c0 -20 -4 -43 -12 -65l-132 -365h-45l132 365c6 17 9 34 9 49z" />
    <glyph glyph-name="percent" unicode="%" horiz-adv-x="1525" 
d="M179 -42l1395 935h79l-1396 -935h-78zM822 709c0 78 -71 100 -145 100c-51 0 -106 -9 -157 -42c-45 -29 -77 -73 -93 -118c-7 -21 -11 -42 -11 -61c0 -78 71 -100 145 -100c51 0 106 9 157 42c45 29 77 74 93 119c7 21 11 41 11 60zM547 447c-91 0 -180 27 -180 124
c0 24 5 52 15 78c20 56 60 113 116 149c63 41 131 52 194 52c91 0 179 -27 179 -124c0 -24 -5 -51 -15 -77c-20 -56 -59 -114 -115 -150c-63 -41 -131 -52 -194 -52zM1416 262c0 78 -72 100 -146 100c-51 0 -106 -9 -157 -42c-45 -29 -77 -73 -93 -118
c-7 -21 -11 -42 -11 -61c0 -78 71 -100 145 -100c51 0 106 9 157 42c45 29 77 74 93 119c7 21 12 41 12 60zM1140 0c-91 0 -180 27 -180 124c0 24 5 52 15 78c20 56 60 113 116 149c63 41 131 52 194 52c91 0 179 -27 179 -124c0 -24 -5 -51 -15 -77
c-20 -56 -59 -114 -115 -150c-63 -41 -131 -52 -194 -52z" />
    <glyph glyph-name="q" unicode="q" horiz-adv-x="949" 
d="M658 562c133 0 267 -34 275 -169l58 159h45l-307 -852h-45l165 460c-29 -37 -64 -71 -105 -96c-95 -59 -197 -74 -292 -74c-143 0 -297 35 -297 188c0 31 7 64 19 98c30 82 91 163 175 212c102 60 209 74 309 74zM907 358c0 134 -138 164 -264 164
c-88 0 -181 -12 -271 -64c-72 -42 -127 -111 -153 -182c-10 -28 -16 -56 -16 -82c0 -134 138 -163 264 -163c88 0 182 12 272 64c71 41 128 110 152 181c10 28 16 56 16 82z" />
    <glyph glyph-name="Racute" unicode="&#x154;" horiz-adv-x="939" 
d="M784 850c146 0 339 -22 339 -177c0 -21 -4 -44 -12 -67c-27 -75 -94 -143 -173 -181c-68 -33 -135 -49 -202 -57l194 -368h-53l-189 364c-27 -2 -54 -2 -80 -2h-302l-131 -362h-45l306 850h348zM860 1084h55l-250 -170h-41zM467 809l-147 -406h303c94 0 194 8 293 53
c67 31 127 86 150 150c7 18 9 36 9 52c0 41 -19 76 -51 98c-66 45 -161 53 -255 53h-302z" />
    <glyph glyph-name="x" unicode="x" horiz-adv-x="753" 
d="M228 552h52l201 -243l364 243h78l-415 -277l227 -275h-53l-207 253l-378 -253h-78l428 286z" />
    <glyph glyph-name="S" unicode="S" horiz-adv-x="967" 
d="M1054 716c-33 90 -169 103 -280 103c-90 0 -183 -3 -277 -46c-62 -28 -115 -82 -136 -141c-7 -19 -9 -36 -9 -53c0 -72 60 -119 145 -119h9l287 -25h10c102 0 174 -57 174 -144c0 -20 -4 -43 -12 -66c-26 -73 -88 -141 -164 -177c-110 -53 -221 -58 -326 -58
c-136 0 -305 19 -329 144l47 21c5 -31 23 -56 49 -73c65 -44 156 -51 248 -51c93 0 191 4 289 48c64 29 118 85 140 146c7 18 10 37 10 53c0 70 -58 116 -141 116h-8l-288 25h-10c-105 0 -178 59 -178 147c0 21 4 43 12 66c25 70 85 137 158 172c107 51 213 56 315 56
c128 0 283 -17 314 -127z" />
    <glyph glyph-name="A" unicode="A" horiz-adv-x="1032" 
d="M19 0l753 850h100l142 -850h-46l-50 297h-579l-264 -297h-56zM912 338l-85 510l-452 -510h537z" />
    <glyph glyph-name="Y" unicode="Y" horiz-adv-x="967" 
d="M315 850h51l241 -479l587 479h70l-640 -523l-118 -327h-45l118 327z" />
    <glyph glyph-name="oslash" unicode="&#xf8;" horiz-adv-x="930" 
d="M653 522c-90 0 -187 -12 -279 -64c-73 -41 -129 -110 -155 -182c-10 -28 -15 -55 -15 -80c0 -33 8 -63 26 -87l640 362c-55 41 -135 51 -217 51zM668 562c96 0 189 -11 250 -63l96 53h78l-147 -82c19 -27 28 -60 28 -97c0 -30 -6 -64 -18 -97c-30 -83 -94 -163 -178 -212
c-104 -60 -214 -74 -316 -74c-96 0 -189 12 -250 64l-96 -54h-78l147 83c-19 27 -28 60 -28 97c0 30 6 63 18 96c30 83 94 163 178 212c104 60 214 74 316 74zM259 81c55 -41 135 -50 217 -50c90 0 187 12 279 64c73 41 129 109 155 181c10 28 15 55 15 80
c0 33 -9 63 -27 87z" />
    <glyph glyph-name="dieresis" unicode="&#xa8;" horiz-adv-x="391" 
d="M271 761c0 24 23 47 48 47c17 0 23 -9 23 -20c0 -24 -22 -47 -47 -47c-17 0 -24 9 -24 20zM606 761c0 23 22 47 47 47c17 0 24 -9 24 -20c0 -23 -22 -47 -47 -47c-17 0 -24 9 -24 20z" />
    <glyph glyph-name="o" unicode="o" horiz-adv-x="930" 
d="M925 356c0 137 -144 166 -272 166c-90 0 -187 -12 -279 -64c-73 -41 -129 -110 -155 -182c-10 -28 -15 -55 -15 -80c0 -137 144 -165 272 -165c90 0 187 12 279 64c73 41 129 109 155 181c10 28 15 55 15 80zM461 -10c-146 0 -305 34 -305 190c0 30 6 63 18 96
c30 83 94 163 178 212c104 60 214 74 316 74c146 0 305 -33 305 -189c0 -30 -6 -64 -18 -97c-30 -83 -94 -163 -178 -212c-104 -60 -214 -74 -316 -74z" />
    <glyph glyph-name="sacute" unicode="&#x15b;" horiz-adv-x="744" 
d="M104 93l46 21c4 -24 21 -42 43 -53c53 -27 122 -30 190 -30c70 0 141 1 215 29c43 16 84 48 98 88c4 11 6 21 6 31c0 44 -38 72 -92 72c-7 0 -14 0 -22 -1l-221 14c-11 -1 -20 -2 -30 -2c-75 0 -128 40 -128 102c0 14 2 29 8 45c18 49 64 94 116 116c82 35 163 37 241 37
c77 0 154 -4 210 -39c20 -12 35 -31 41 -53l-46 -24c-5 20 -20 36 -40 46c-50 26 -114 30 -179 30c-66 0 -134 -1 -204 -28c-41 -16 -79 -47 -93 -85c-4 -11 -6 -22 -6 -32c0 -45 39 -74 95 -74c8 0 16 1 24 2l220 -14c10 1 20 2 30 2c73 0 124 -39 124 -100
c0 -14 -3 -29 -9 -45c-18 -51 -66 -96 -120 -119c-86 -37 -171 -39 -253 -39c-80 0 -160 5 -219 41c-23 14 -40 36 -45 62zM804 843h55l-250 -170h-41z" />
    <glyph glyph-name="J" unicode="J" horiz-adv-x="818" 
d="M98 131c26 -87 151 -100 253 -100c80 0 164 7 248 47c59 28 109 77 129 133l230 639h46l-230 -639c-24 -67 -82 -128 -152 -163c-96 -48 -194 -58 -286 -58c-117 0 -254 17 -284 116z" />
    <glyph glyph-name="dotaccent" unicode="&#x2d9;" horiz-adv-x="335" 
d="M410 761c0 24 23 47 48 47c17 0 24 -9 24 -20c0 -24 -23 -47 -48 -47c-17 0 -24 9 -24 20z" />
    <glyph glyph-name="y" unicode="y" horiz-adv-x="781" 
d="M208 552h47l146 -498l505 498h65l-864 -852h-65l323 318z" />
    <glyph glyph-name="yacute" unicode="&#xfd;" horiz-adv-x="781" 
d="M208 552h47l146 -498l505 498h65l-864 -852h-65l323 318zM822 843h56l-250 -170h-41z" />
    <glyph glyph-name="dotlessj" unicode="&#x237;" horiz-adv-x="391" 
d="M-206 -217c24 -43 88 -52 146 -52c51 0 106 6 159 35c41 22 72 60 86 100l248 686h45l-247 -686c-18 -51 -58 -100 -110 -130c-64 -37 -132 -46 -195 -46c-70 0 -144 11 -175 61z" />
    <glyph glyph-name="braceleft" unicode="{" horiz-adv-x="567" 
d="M495 663c31 86 122 153 214 198c22 11 65 29 65 29l4 -37c-98 -37 -206 -100 -238 -190l-65 -180c-18 -50 -48 -101 -94 -138l49 138zM201 325c46 0 97 10 142 41c43 29 71 73 87 117l-49 -138c-21 -17 -47 -33 -72 -43c32 -18 53 -49 53 -97c0 -26 -7 -54 -17 -83
l-64 -180c-6 -17 -9 -32 -9 -47c0 -67 56 -115 109 -143l-30 -37c-62 33 -126 90 -126 169c0 18 3 38 10 58l65 180l-65 -180zM201 325l-17 -45z" />
    <glyph glyph-name="numbersign" unicode="#" horiz-adv-x="1004" 
d="M137 277l15 41h238l130 214h-254l15 41h264l168 277h51l-168 -277h298l168 277h51l-168 -277h228l-14 -41h-239l-130 -214h254l-14 -41h-265l-168 -277h-51l168 277h-297l-168 -277h-51l168 277h-229zM739 318l130 214h-298l-130 -214h298z" />
    <glyph glyph-name="quoteleft" unicode="&#x2018;" horiz-adv-x="474" 
d="M595 850h42l-246 -276h-57z" />
    <glyph glyph-name="ffl" unicode="&#xfb04;" horiz-adv-x="1293" 
d="M1246 860c0 47 -46 59 -90 59c-31 0 -64 -5 -95 -24c-26 -16 -45 -42 -54 -68l-99 -275h195l-15 -40h-195l-184 -512h-45l184 512h-378l-184 -512h-45l184 512h-192l14 40h193l98 275c13 37 41 75 78 99c43 27 89 34 132 34c62 0 123 -17 123 -83c0 -16 -3 -33 -9 -50
h-45c4 11 6 23 6 33c0 47 -46 59 -90 59c-31 0 -64 -5 -95 -24c-26 -16 -45 -42 -54 -68l-99 -275h378l99 275c13 37 40 75 77 99c43 27 89 34 132 34c62 0 123 -17 123 -83c0 -16 -3 -33 -9 -50h-45c4 11 6 23 6 33zM1136 0l342 950h45l-342 -950h-45z" />
    <glyph glyph-name="perthousandzero" horiz-adv-x="642" 
d="M623 255c0 88 -90 107 -172 107c-57 0 -119 -8 -178 -42c-47 -27 -83 -71 -100 -118c-7 -19 -10 -37 -10 -54c0 -88 91 -107 173 -107c57 0 118 8 177 42c47 27 83 72 100 119c7 19 10 36 10 53zM321 0c-100 0 -206 24 -206 131c0 22 4 47 13 71c21 58 65 114 123 149
c71 42 145 52 215 52c100 0 206 -24 206 -131c0 -22 -5 -46 -14 -70c-21 -58 -64 -115 -122 -150c-71 -42 -145 -52 -215 -52z" />
    <glyph glyph-name="lcaron" unicode="&#x13e;" horiz-adv-x="268" 
d="M112 0l342 950h45l-342 -950h-45zM708 950h56l-261 -276h-42z" />
    <glyph glyph-name="three" unicode="3" horiz-adv-x="883" 
d="M723 860c129 0 289 -24 289 -161c0 -21 -4 -44 -12 -67c-23 -64 -81 -122 -149 -155c-46 -22 -93 -35 -139 -43c40 -9 77 -24 106 -48s45 -60 45 -101c0 -21 -5 -44 -13 -67c-25 -68 -82 -132 -153 -169c-96 -50 -195 -59 -287 -59c-116 0 -249 18 -281 116l46 25
c27 -86 148 -100 250 -100c80 0 165 8 249 49c60 29 110 81 131 138c6 18 10 36 10 52c0 118 -145 134 -256 134h-79l15 42h79c80 0 165 7 249 48c60 29 110 81 131 138c6 18 10 36 10 52c0 118 -144 135 -255 135c-80 0 -165 -8 -249 -49c-27 -13 -53 -30 -74 -51l-28 25
c23 22 50 42 79 57c96 50 194 59 286 59z" />
    <glyph glyph-name="Ucircumflex" unicode="&#xdb;" horiz-adv-x="1105" 
d="M250 193c0 -142 180 -162 314 -162c98 0 200 8 303 57c72 34 134 96 159 164l215 598h45l-215 -598c-29 -80 -98 -152 -181 -194c-115 -58 -231 -68 -341 -68c-153 0 -347 26 -347 188c0 24 4 48 13 74l216 598h45l-216 -598c-7 -21 -10 -40 -10 -59zM850 1061l-249 -147
h-46l273 170h61l150 -170h-45z" />
    <glyph glyph-name="ohungarumlaut" unicode="&#x151;" horiz-adv-x="930" 
d="M523 673l221 170h54l-236 -170h-39zM1023 843h54l-236 -170h-39zM925 356c0 137 -144 166 -272 166c-90 0 -187 -12 -279 -64c-73 -41 -129 -110 -155 -182c-10 -28 -15 -55 -15 -80c0 -137 144 -165 272 -165c90 0 187 12 279 64c73 41 129 109 155 181
c10 28 15 55 15 80zM461 -10c-146 0 -305 34 -305 190c0 30 6 63 18 96c30 83 94 163 178 212c104 60 214 74 316 74c146 0 305 -33 305 -189c0 -30 -6 -64 -18 -97c-30 -83 -94 -163 -178 -212c-104 -60 -214 -74 -316 -74z" />
    <glyph glyph-name="bracketleft" unicode="[" horiz-adv-x="521" 
d="M59 -300l430 1193h297l-14 -41h-253l-400 -1111h253l-15 -41h-298z" />
    <glyph glyph-name="oacute" unicode="&#xf3;" horiz-adv-x="930" 
d="M897 843h55l-250 -170h-41zM925 356c0 137 -144 166 -272 166c-90 0 -187 -12 -279 -64c-73 -41 -129 -110 -155 -182c-10 -28 -15 -55 -15 -80c0 -137 144 -165 272 -165c90 0 187 12 279 64c73 41 129 109 155 181c10 28 15 55 15 80zM461 -10c-146 0 -305 34 -305 190
c0 30 6 63 18 96c30 83 94 163 178 212c104 60 214 74 316 74c146 0 305 -33 305 -189c0 -30 -6 -64 -18 -97c-30 -83 -94 -163 -178 -212c-104 -60 -214 -74 -316 -74z" />
    <glyph glyph-name="nine" unicode="9" horiz-adv-x="911" 
d="M756 860c140 0 303 -29 303 -178c0 -26 -5 -54 -15 -82l-135 -373c-26 -72 -87 -137 -162 -175c-102 -52 -206 -62 -304 -62c-123 0 -266 18 -301 119l46 26c30 -90 161 -104 270 -104c86 0 177 8 267 51c63 30 117 85 139 145l97 268c-28 -34 -63 -64 -102 -87
c-96 -55 -196 -67 -290 -67c-140 0 -303 29 -303 178c0 26 5 53 15 81c28 77 90 150 169 193c102 56 207 67 306 67zM1011 666c0 130 -148 153 -270 153c-87 0 -179 -10 -269 -57c-67 -36 -123 -97 -146 -162c-8 -23 -12 -44 -12 -65c0 -130 148 -153 270 -153
c87 0 179 10 269 57c67 36 123 96 146 161c8 23 12 45 12 66z" />
    <glyph glyph-name="backslash" unicode="\" horiz-adv-x="698" 
d="M580 -42l-222 935h66l221 -935h-65z" />
    <glyph glyph-name="atilde" unicode="&#xe3;" 
d="M621 562c125 0 276 -23 276 -156c0 -21 -5 -45 -13 -68l-121 -338h-45l32 90c-23 -23 -51 -42 -81 -55c-86 -39 -172 -45 -254 -45c-87 0 -174 6 -238 45c-31 19 -51 49 -51 87c0 13 2 28 7 42c20 56 76 102 136 128c92 39 184 46 271 46c104 0 237 -12 263 -101l36 101
c7 18 10 35 10 52c0 113 -136 132 -243 132c-77 0 -158 -8 -238 -48c-18 -9 -36 -21 -52 -34l-22 30c16 13 33 24 51 34c92 49 187 58 276 58zM444 677h-36c13 35 40 68 76 88c46 26 95 31 140 31c63 0 79 -70 142 -70c35 0 73 3 110 21c26 13 48 37 57 62h36
c-13 -35 -40 -69 -76 -89c-46 -26 -95 -30 -140 -30c-63 0 -79 69 -142 69c-35 0 -73 -3 -110 -21c-26 -13 -48 -36 -57 -61zM525 297c-75 0 -153 -4 -233 -35c-49 -19 -98 -53 -114 -98c-4 -10 -5 -20 -5 -29c0 -31 21 -54 48 -69c58 -31 134 -35 209 -35s153 4 233 35
c49 19 97 53 113 98c4 10 6 19 6 28c0 31 -21 55 -48 70c-58 31 -134 35 -209 35z" />
    <glyph glyph-name="Aacute" unicode="&#xc1;" horiz-adv-x="1032" 
d="M19 0l753 850h100l142 -850h-46l-50 297h-579l-264 -297h-56zM948 1084h55l-249 -170h-41zM912 338l-85 510l-452 -510h537z" />
    <glyph glyph-name="ccedilla" unicode="&#xe7;" horiz-adv-x="889" 
d="M204 196c0 -137 144 -165 272 -165c90 0 187 12 279 64c33 19 63 42 88 70l32 -21c-28 -31 -61 -59 -98 -80c-100 -58 -204 -73 -302 -74l-32 -64c76 0 188 -10 188 -90c0 -9 -1 -19 -5 -29c-14 -38 -51 -70 -92 -88c-62 -27 -122 -31 -181 -31c-68 0 -151 6 -182 53
l33 24c24 -41 101 -45 160 -45c84 0 201 17 226 87c2 7 3 13 3 19c0 20 -13 36 -31 45c-38 20 -86 23 -135 23h-34l48 96c-139 3 -285 41 -285 190c0 30 6 63 18 96c30 83 94 163 178 212c104 60 214 74 316 74c135 0 279 -28 302 -153l-48 -22c-20 111 -150 135 -269 135
c-90 0 -187 -12 -279 -64c-73 -41 -129 -110 -155 -182c-10 -28 -15 -55 -15 -80z" />
    <glyph glyph-name="Lslash" unicode="&#x141;" 
d="M818 0h-669l116 324l-130 -51l18 49l130 51l172 477h45l-164 -456l467 183l-18 -49l-467 -183l-109 -304h624z" />
    <glyph glyph-name="Sacute" unicode="&#x15a;" horiz-adv-x="967" 
d="M1054 716c-33 90 -169 103 -280 103c-90 0 -183 -3 -277 -46c-62 -28 -115 -82 -136 -141c-7 -19 -9 -36 -9 -53c0 -72 60 -119 145 -119h9l287 -25h10c102 0 174 -57 174 -144c0 -20 -4 -43 -12 -66c-26 -73 -88 -141 -164 -177c-110 -53 -221 -58 -326 -58
c-136 0 -305 19 -329 144l47 21c5 -31 23 -56 49 -73c65 -44 156 -51 248 -51c93 0 191 4 289 48c64 29 118 85 140 146c7 18 10 37 10 53c0 70 -58 116 -141 116h-8l-288 25h-10c-105 0 -178 59 -178 147c0 21 4 43 12 66c25 70 85 137 158 172c107 51 213 56 315 56
c128 0 283 -17 314 -127zM911 1084h55l-250 -170h-41z" />
    <glyph glyph-name="visiblespace" unicode="&#x2420;" horiz-adv-x="744" 
d="M37 0h45l-36 -100h580l36 100h45c-17 -47 -34 -93 -51 -140h-669c17 47 33 93 50 140z" />
    <glyph glyph-name="aring" unicode="&#xe5;" 
d="M621 562c125 0 276 -23 276 -156c0 -21 -5 -45 -13 -68l-121 -338h-45l32 90c-23 -23 -51 -42 -81 -55c-86 -39 -172 -45 -254 -45c-87 0 -174 6 -238 45c-31 19 -51 49 -51 87c0 13 2 28 7 42c20 56 76 102 136 128c92 39 184 46 271 46c104 0 237 -12 263 -101l36 101
c7 18 10 35 10 52c0 113 -136 132 -243 132c-77 0 -158 -8 -238 -48c-18 -9 -36 -21 -52 -34l-22 30c16 13 33 24 51 34c92 49 187 58 276 58zM525 297c-75 0 -153 -4 -233 -35c-49 -19 -98 -53 -114 -98c-4 -10 -5 -20 -5 -29c0 -31 21 -54 48 -69c58 -31 134 -35 209 -35
s153 4 233 35c49 19 97 53 113 98c4 10 6 19 6 28c0 31 -21 55 -48 70c-58 31 -134 35 -209 35zM808 779c0 43 -48 50 -88 50c-29 0 -59 -3 -89 -19c-22 -12 -40 -31 -48 -52c-3 -7 -4 -15 -4 -22c0 -43 49 -50 89 -50c29 0 59 3 89 19c22 12 39 32 47 53c3 7 4 14 4 21z
M658 659c-52 0 -111 11 -111 67c0 10 2 21 6 32c10 29 33 56 63 73c38 21 76 25 113 25c52 0 111 -11 111 -67c0 -10 -2 -20 -6 -31c-10 -29 -32 -56 -62 -73c-38 -21 -77 -26 -114 -26z" />
    <glyph glyph-name="m" unicode="m" horiz-adv-x="1349" 
d="M798 421c0 81 -78 101 -154 101s-156 -6 -236 -41c-53 -23 -102 -66 -120 -116l-131 -365h-45l198 552h46l-38 -103c24 25 53 46 84 62c86 43 174 51 257 51c93 0 188 -25 188 -125c0 -3 -1 -5 -1 -8c26 33 62 62 101 82c86 43 174 51 257 51c93 0 187 -25 187 -125
c0 -23 -4 -47 -13 -72l-132 -365h-45l132 365c7 19 10 38 10 56c0 81 -78 101 -154 101s-157 -6 -237 -41c-53 -23 -101 -66 -119 -116l-132 -365h-45l132 365c7 19 10 38 10 56z" />
    <glyph glyph-name="ograve" unicode="&#xf2;" horiz-adv-x="930" 
d="M590 843h55l113 -170h-41zM925 356c0 137 -144 166 -272 166c-90 0 -187 -12 -279 -64c-73 -41 -129 -110 -155 -182c-10 -28 -15 -55 -15 -80c0 -137 144 -165 272 -165c90 0 187 12 279 64c73 41 129 109 155 181c10 28 15 55 15 80zM461 -10c-146 0 -305 34 -305 190
c0 30 6 63 18 96c30 83 94 163 178 212c104 60 214 74 316 74c146 0 305 -33 305 -189c0 -30 -6 -64 -18 -97c-30 -83 -94 -163 -178 -212c-104 -60 -214 -74 -316 -74z" />
    <glyph glyph-name="Cacute" unicode="&#x106;" horiz-adv-x="1256" 
d="M256 289c0 -210 209 -258 406 -258c137 0 284 20 423 102c47 28 89 63 125 102l31 -23c-39 -42 -83 -79 -133 -109c-151 -91 -312 -113 -461 -113s-293 22 -379 113c-41 44 -60 104 -60 170c0 48 10 100 29 152c45 125 137 246 263 322c151 91 312 113 461 113
c195 0 397 -44 433 -222l-47 -23c-33 164 -222 204 -401 204c-137 0 -284 -20 -423 -102c-115 -68 -200 -179 -241 -292c-17 -47 -26 -93 -26 -136zM1083 1084h55l-250 -170h-41z" />
    <glyph glyph-name="six" unicode="6" horiz-adv-x="911" 
d="M1029 715c-30 90 -160 104 -269 104l15 41c123 0 265 -18 300 -119zM206 184c0 -130 148 -153 270 -153c87 0 179 10 269 57c67 36 123 97 146 162c8 23 12 44 12 65c0 130 -147 153 -269 153c-87 0 -180 -10 -270 -57c-67 -36 -122 -96 -145 -161
c-8 -23 -13 -45 -13 -66zM648 509c140 0 303 -29 303 -178c0 -26 -5 -53 -15 -81c-28 -77 -89 -149 -168 -192c-102 -56 -208 -68 -307 -68c-140 0 -303 29 -303 178c0 26 6 54 16 82l134 373c26 72 87 137 162 175c102 52 207 62 305 62l-15 -41c-86 0 -177 -8 -267 -51
c-63 -30 -118 -85 -140 -145l-96 -268c28 34 63 64 102 87c96 55 195 67 289 67z" />
    <glyph glyph-name="egrave" unicode="&#xe8;" horiz-adv-x="921" 
d="M204 196c0 -137 144 -165 272 -165c88 0 181 7 274 51c29 14 57 33 80 55l27 -27c-25 -23 -53 -43 -84 -58c-105 -52 -212 -62 -312 -62c-146 0 -305 34 -305 190c0 30 6 63 18 96c30 83 94 163 178 212c104 60 214 74 316 74c146 0 305 -33 305 -189
c0 -30 -6 -64 -18 -97l-7 -20h-736c-6 -21 -8 -41 -8 -60zM590 843h55l113 -170h-41zM925 356c0 137 -144 166 -272 166c-90 0 -187 -12 -279 -64c-66 -37 -119 -97 -147 -161h689c6 21 9 40 9 59z" />
    <glyph glyph-name="cwm" horiz-adv-x="0" 
d="M79 -7c-3 -7 -9 -13 -19 -13c-11 0 -21 9 -21 20c0 2 0 5 1 7l306 850c3 7 10 13 20 13c11 0 20 -9 20 -20c0 -2 0 -5 -1 -7z" />
    <glyph glyph-name="hyphen" unicode="-" horiz-adv-x="539" 
d="M166 256l15 41h391l-15 -41h-391z" />
    <glyph glyph-name="scaron" unicode="&#x161;" horiz-adv-x="744" 
d="M104 93l46 21c4 -24 21 -42 43 -53c53 -27 122 -30 190 -30c70 0 141 1 215 29c43 16 84 48 98 88c4 11 6 21 6 31c0 44 -38 72 -92 72c-7 0 -14 0 -22 -1l-221 14c-11 -1 -20 -2 -30 -2c-75 0 -128 40 -128 102c0 14 2 29 8 45c18 49 64 94 116 116c82 35 163 37 241 37
c77 0 154 -4 210 -39c20 -12 35 -31 41 -53l-46 -24c-5 20 -20 36 -40 46c-50 26 -114 30 -179 30c-66 0 -134 -1 -204 -28c-41 -16 -79 -47 -93 -85c-4 -11 -6 -22 -6 -32c0 -45 39 -74 95 -74c8 0 16 1 24 2l220 -14c10 1 20 2 30 2c73 0 124 -39 124 -100
c0 -14 -3 -29 -9 -45c-18 -51 -66 -96 -120 -119c-86 -37 -171 -39 -253 -39c-80 0 -160 5 -219 41c-23 14 -40 36 -45 62zM874 843h46l-272 -170h-62l-150 170h46l143 -147z" />
    <glyph glyph-name="Zacute" unicode="&#x179;" horiz-adv-x="949" 
d="M338 809l14 41h856l-36 -100l-1107 -709h852l-15 -41h-856l36 100l1108 709h-852zM906 1084h55l-249 -170h-41z" />
    <glyph glyph-name="igrave" unicode="&#xec;" horiz-adv-x="353" 
d="M154 0l199 552h45l-199 -552h-45zM302 843h55l113 -170h-41z" />
    <glyph glyph-name="acircumflex" unicode="&#xe2;" 
d="M621 562c125 0 276 -23 276 -156c0 -21 -5 -45 -13 -68l-121 -338h-45l32 90c-23 -23 -51 -42 -81 -55c-86 -39 -172 -45 -254 -45c-87 0 -174 6 -238 45c-31 19 -51 49 -51 87c0 13 2 28 7 42c20 56 76 102 136 128c92 39 184 46 271 46c104 0 237 -12 263 -101l36 101
c7 18 10 35 10 52c0 113 -136 132 -243 132c-77 0 -158 -8 -238 -48c-18 -9 -36 -21 -52 -34l-22 30c16 13 33 24 51 34c92 49 187 58 276 58zM525 297c-75 0 -153 -4 -233 -35c-49 -19 -98 -53 -114 -98c-4 -10 -5 -20 -5 -29c0 -31 21 -54 48 -69c58 -31 134 -35 209 -35
s153 4 233 35c49 19 97 53 113 98c4 10 6 19 6 28c0 31 -21 55 -48 70c-58 31 -134 35 -209 35zM716 820l-249 -147h-46l273 170h61l150 -170h-45z" />
    <glyph glyph-name="M" unicode="M" horiz-adv-x="1442" 
d="M130 0l306 850h45l-306 -850h-45zM491 850h-10l6 16zM491 850h45l179 -842l802 842h100l-306 -850h-45l301 834l-796 -834h-100z" />
    <glyph glyph-name="N" unicode="N" horiz-adv-x="1163" 
d="M130 0l306 850h45l-306 -850h-45zM987 0l-1 -2l-1 2h2zM987 0l306 850h45l-306 -850h-45zM985 -0h-53l-449 850h53zM483 850h-2l1 2z" />
    <glyph glyph-name="at" unicode="@" horiz-adv-x="1246" 
d="M634 31c142 0 315 9 449 68l5 -36c-147 -63 -319 -73 -468 -73s-294 22 -380 113c-41 44 -60 104 -60 170c0 48 10 100 29 152c45 125 137 246 263 322c151 91 312 113 461 113s293 -22 379 -113c41 -44 60 -104 60 -170c0 -48 -10 -100 -29 -152
c-22 -61 -80 -113 -145 -141c-98 -43 -195 -50 -287 -50h-45l33 92c-14 -16 -29 -30 -47 -42c-56 -38 -118 -50 -175 -50c-89 0 -179 26 -179 121c0 22 5 46 14 70c19 54 57 107 111 141c62 39 129 50 191 50c75 0 145 -22 157 -92l32 92h46l-123 -340c81 0 165 4 250 38
c53 21 104 61 122 111c17 47 26 93 26 136c0 210 -209 258 -406 258c-137 0 -284 -20 -423 -102c-115 -68 -200 -179 -241 -292c-17 -47 -26 -93 -26 -136c0 -210 209 -258 406 -258zM945 479c0 77 -73 95 -145 95c-50 0 -104 -7 -154 -38c-43 -26 -74 -68 -89 -111
c-7 -18 -10 -37 -10 -54c0 -77 73 -95 145 -95c50 0 104 7 154 38c43 26 74 68 89 111c7 18 10 37 10 54z" />
    <glyph glyph-name="idieresis" unicode="&#xef;" horiz-adv-x="353" 
d="M154 0l199 552h45l-199 -552h-45zM252 754c0 24 23 46 48 46c17 0 24 -9 24 -20c0 -13 -10 -30 -20 -38c-9 -6 -19 -8 -28 -8c-17 0 -24 9 -24 20zM587 754c0 24 23 46 48 46c17 0 24 -9 24 -20c0 -13 -10 -30 -20 -38c-9 -6 -19 -8 -28 -8c-17 0 -24 9 -24 20z" />
    <glyph glyph-name="colon" unicode=":" horiz-adv-x="343" 
d="M149 19c0 24 20 45 45 45c16 0 22 -9 22 -20c0 -24 -20 -44 -45 -44c-16 0 -22 8 -22 19zM325 507c0 24 20 45 45 45c16 0 22 -8 22 -19c0 -24 -20 -45 -45 -45c-16 0 -22 8 -22 19z" />
    <glyph glyph-name="l" unicode="l" horiz-adv-x="268" 
d="M112 0l342 950h45l-342 -950h-45z" />
    <glyph glyph-name="Iacute" unicode="&#xcd;" horiz-adv-x="343" 
d="M149 0l306 850h45l-306 -850h-45zM603 1084h55l-249 -170h-41z" />
    <glyph glyph-name="two" unicode="2" horiz-adv-x="883" 
d="M742 860c125 0 294 -18 294 -151c0 -17 -3 -36 -10 -55c-70 -194 -295 -317 -502 -420c-120 -64 -238 -128 -358 -193h639l-15 -41h-716l15 41c145 78 290 157 435 235c188 93 394 202 457 378c5 14 7 28 7 41c0 35 -17 63 -45 81c-57 37 -136 43 -216 43
s-163 -6 -247 -43c-27 -12 -53 -29 -75 -49l-26 26c23 21 50 40 79 54c96 46 192 53 284 53z" />
    <glyph glyph-name="zero" unicode="0" horiz-adv-x="967" 
d="M778 819c-97 0 -203 -15 -292 -88c-100 -83 -147 -197 -186 -306c-27 -75 -53 -153 -53 -221c0 -31 5 -59 18 -85c36 -73 133 -88 230 -88s204 15 293 88c100 83 146 197 185 306c27 75 53 153 53 221c0 31 -5 59 -18 85c-36 73 -133 88 -230 88zM793 860
c109 0 220 -15 262 -97c15 -29 21 -61 21 -96c0 -75 -28 -160 -58 -242c-43 -120 -95 -248 -207 -338c-101 -82 -222 -97 -331 -97s-219 15 -261 97c-15 29 -21 61 -21 96c0 75 27 160 57 242c43 120 95 248 207 338c101 82 222 97 331 97z" />
    <glyph glyph-name="g" unicode="g" horiz-adv-x="949" 
d="M658 562c132 0 267 -33 276 -166l57 156h45l-229 -635c-25 -69 -86 -132 -159 -168c-102 -50 -206 -59 -304 -59c-115 0 -249 14 -295 99l44 30c39 -77 163 -88 266 -88c86 0 176 6 266 48c61 28 116 80 137 138l90 250c-29 -36 -63 -69 -104 -94
c-95 -58 -198 -73 -292 -73c-143 0 -298 34 -298 186c0 30 6 62 18 95c29 81 91 160 174 208c102 59 208 73 308 73zM908 360c0 133 -140 162 -265 162c-88 0 -181 -12 -271 -63c-71 -41 -126 -108 -151 -178c-10 -27 -15 -54 -15 -79c0 -133 139 -161 264 -161
c88 0 182 11 272 62c71 41 126 108 151 178c11 26 15 55 15 79z" />
    <glyph glyph-name="Tcedilla" unicode="&#x162;" horiz-adv-x="856" 
d="M167 -235c24 -41 101 -45 160 -45c84 0 200 17 225 87c2 7 4 13 4 19c0 20 -13 36 -31 45c-38 20 -86 23 -135 23h-34l53 106h-4l291 809h-403l15 41h852l-15 -41h-403l-292 -809h-8l-36 -74c76 0 188 -10 188 -90c0 -9 -2 -19 -6 -29c-14 -38 -50 -70 -91 -88
c-62 -27 -123 -31 -182 -31c-68 0 -150 6 -181 53z" />
    <glyph glyph-name="Tcaron" unicode="&#x164;" horiz-adv-x="856" 
d="M293 809l15 41h852l-15 -41h-403l-292 -809h-45l291 809h-403zM930 1084h46l-273 -170h-61l-150 170h45l144 -147z" />
    <glyph glyph-name="hungarumlaut" unicode="&#x2dd;" horiz-adv-x="391" 
d="M253 680l222 170h53l-236 -170h-39zM754 850h53l-236 -170h-39z" />
    <glyph glyph-name="Lacute" unicode="&#x139;" horiz-adv-x="856" 
d="M130 0l306 850h45l-291 -809h625l-15 -41h-670zM585 1084h55l-250 -170h-41z" />
    <glyph glyph-name="quotesinglbase" unicode="&#x201a;" horiz-adv-x="474" 
d="M320 106h57l-261 -276h-42z" />
    <glyph glyph-name="grave" unicode="`" horiz-adv-x="372" 
d="M376 850h55l113 -170h-41z" />
    <glyph glyph-name="otilde" unicode="&#xf5;" horiz-adv-x="930" 
d="M490 677h-36c13 35 41 68 77 88c46 26 94 31 139 31c63 0 80 -70 143 -70c35 0 72 3 109 21c26 13 49 37 58 62h36c-13 -35 -41 -69 -77 -89c-46 -26 -94 -30 -139 -30c-63 0 -80 69 -143 69c-35 0 -72 -3 -109 -21c-26 -13 -49 -36 -58 -61zM925 356
c0 137 -144 166 -272 166c-90 0 -187 -12 -279 -64c-73 -41 -129 -110 -155 -182c-10 -28 -15 -55 -15 -80c0 -137 144 -165 272 -165c90 0 187 12 279 64c73 41 129 109 155 181c10 28 15 55 15 80zM461 -10c-146 0 -305 34 -305 190c0 30 6 63 18 96c30 83 94 163 178 212
c104 60 214 74 316 74c146 0 305 -33 305 -189c0 -30 -6 -64 -18 -97c-30 -83 -94 -163 -178 -212c-104 -60 -214 -74 -316 -74z" />
    <glyph glyph-name="uhungarumlaut" unicode="&#x171;" horiz-adv-x="884" 
d="M208 148c0 -105 141 -117 240 -117c74 0 151 6 229 41c52 24 99 66 117 115l132 365h45l-199 -552h-45l37 103c-23 -25 -51 -46 -81 -62c-84 -43 -168 -51 -249 -51c-118 0 -274 18 -274 143c0 17 3 35 10 54l131 365h45l-131 -365c-5 -14 -7 -27 -7 -39zM495 673
l222 170h53l-236 -170h-39zM996 843h53l-236 -170h-39z" />
    <glyph glyph-name="dcroat" unicode="&#x111;" horiz-adv-x="977" 
d="M658 562c133 0 267 -34 275 -169l125 347h-336l15 40h336l61 170h45l-61 -170h121l-15 -40h-121l-266 -740h-45l57 160c-29 -37 -64 -71 -105 -96c-95 -59 -197 -74 -292 -74c-143 0 -297 35 -297 188c0 31 7 64 19 98c30 82 91 163 175 212c102 60 209 74 309 74z
M907 358c0 134 -138 164 -264 164c-88 0 -181 -12 -271 -64c-72 -42 -127 -111 -153 -182c-10 -28 -16 -56 -16 -82c0 -134 138 -163 264 -163c88 0 182 12 272 64c71 41 128 110 152 181c10 28 16 56 16 82z" />
    <glyph glyph-name="K" unicode="K" horiz-adv-x="986" 
d="M436 850h45l-153 -425c106 52 211 104 317 156l545 269h98l-621 -306l315 -544h-54l-303 523l-318 -157l-132 -366h-45z" />
    <glyph glyph-name="zdotaccent" unicode="&#x17c;" horiz-adv-x="688" 
d="M231 512l14 40h596l-15 -40h-595zM587 754c0 24 23 46 48 46c17 0 24 -9 24 -20c0 -13 -10 -30 -20 -38c-9 -6 -19 -8 -28 -8c-17 0 -24 9 -24 20zM61 41h-6l8 4zM61 41h595l-14 -41h-596zM63 45l19 55l742 408l-19 -56zM824 508l2 4h6z" />
    <glyph glyph-name="period" unicode="." horiz-adv-x="343" 
d="M149 19c0 24 20 45 45 45c16 0 22 -9 22 -20c0 -24 -20 -44 -45 -44c-16 0 -22 8 -22 19z" />
    <glyph glyph-name="k" unicode="k" horiz-adv-x="809" 
d="M463 950h45l-262 -728l653 330h90l-449 -227l250 -325h-68l-231 300l-265 -134l-60 -166h-45z" />
    <glyph glyph-name="W" unicode="W" horiz-adv-x="1451" 
d="M325 850h45l128 -847l340 391l-69 456h46l62 -411l359 411h58l-408 -468l57 -379l737 847h58l-740 -850h-100l-51 337l-294 -337h-100z" />
    <glyph glyph-name="X" unicode="X" horiz-adv-x="921" 
d="M326 850h50l244 -388l514 388h73l-563 -426l267 -424h-50l-251 399l-528 -399h-73l577 436z" />
    <glyph glyph-name="ogonek" unicode="&#x2db;" horiz-adv-x="372" 
d="M74 -312c-77 0 -193 8 -193 90c0 9 1 19 5 29c32 89 150 81 233 128l163 98l-15 -33l-163 -98c-64 -36 -156 -25 -181 -95c-2 -7 -4 -13 -4 -19c0 -20 13 -36 31 -45c38 -20 86 -23 135 -23c55 0 125 6 173 33l8 -29c-59 -30 -131 -36 -192 -36z" />
    <glyph glyph-name="agrave" unicode="&#xe0;" 
d="M621 562c125 0 276 -23 276 -156c0 -21 -5 -45 -13 -68l-121 -338h-45l32 90c-23 -23 -51 -42 -81 -55c-86 -39 -172 -45 -254 -45c-87 0 -174 6 -238 45c-31 19 -51 49 -51 87c0 13 2 28 7 42c20 56 76 102 136 128c92 39 184 46 271 46c104 0 237 -12 263 -101l36 101
c7 18 10 35 10 52c0 113 -136 132 -243 132c-77 0 -158 -8 -238 -48c-18 -9 -36 -21 -52 -34l-22 30c16 13 33 24 51 34c92 49 187 58 276 58zM543 843h56l113 -170h-41zM525 297c-75 0 -153 -4 -233 -35c-49 -19 -98 -53 -114 -98c-4 -10 -5 -20 -5 -29
c0 -31 21 -54 48 -69c58 -31 134 -35 209 -35s153 4 233 35c49 19 97 53 113 98c4 10 6 19 6 28c0 31 -21 55 -48 70c-58 31 -134 35 -209 35z" />
    <glyph glyph-name="aogonek" unicode="&#x105;" 
d="M849 390c0 113 -136 132 -243 132c-77 0 -158 -8 -238 -48c-18 -9 -36 -21 -52 -34l-22 30c16 13 33 24 51 34c92 49 187 58 276 58c125 0 276 -23 276 -156c0 -21 -5 -45 -13 -68l-112 -311l10 6l-15 -33l-163 -98c-64 -36 -157 -25 -182 -95c-2 -7 -3 -13 -3 -19
c0 -20 12 -36 30 -45c38 -20 87 -23 136 -23c55 0 125 6 173 33l8 -29c-59 -30 -132 -36 -193 -36c-77 0 -192 8 -192 90c0 9 1 19 5 29c32 89 149 81 232 128l109 65h-9l32 90c-23 -23 -51 -42 -81 -55c-86 -39 -172 -45 -254 -45c-87 0 -174 6 -238 45
c-31 19 -51 49 -51 87c0 13 2 28 7 42c20 56 76 102 136 128c92 39 184 46 271 46c104 0 237 -12 263 -101l36 101c7 18 10 35 10 52zM525 297c-75 0 -153 -4 -233 -35c-49 -19 -98 -53 -114 -98c-4 -10 -5 -20 -5 -29c0 -31 21 -54 48 -69c58 -31 134 -35 209 -35
s153 4 233 35c49 19 97 53 113 98c4 10 6 19 6 28c0 31 -21 55 -48 70c-58 31 -134 35 -209 35z" />
    <glyph glyph-name="quotedbl" unicode="&#x22;" horiz-adv-x="549" 
d="M362 850h45l-100 -276h-45zM799 850l-100 -276h-45l100 276h45z" />
    <glyph glyph-name="t" unicode="t" horiz-adv-x="502" 
d="M195 512l15 40h217l144 398h45l-143 -398h217l-15 -40h-217l-184 -512h-45l184 512h-218z" />
    <glyph glyph-name="question" unicode="?" horiz-adv-x="818" 
d="M700 860c123 0 266 -25 266 -156c0 -23 -4 -47 -13 -72c-24 -67 -79 -130 -148 -168c-82 -45 -166 -57 -246 -59l-77 -213h-45l91 254h23c75 0 154 7 232 48c58 30 105 82 125 138c7 19 10 38 10 56c0 112 -128 131 -233 131c-75 0 -153 -8 -231 -49
c-25 -13 -49 -30 -69 -50l-29 24c22 22 47 42 75 57c90 49 182 59 269 59zM369 20c0 24 20 44 45 44c16 0 22 -8 22 -19c0 -24 -20 -45 -45 -45c-16 0 -22 9 -22 20z" />
    <glyph glyph-name="Adieresis" unicode="&#xc4;" horiz-adv-x="1032" 
d="M19 0l753 850h100l142 -850h-46l-50 297h-579l-264 -297h-56zM663 1021c0 -23 -23 -46 -47 -46c-17 0 -24 9 -24 20c0 13 10 30 20 38c9 6 18 8 27 8c17 0 24 -9 24 -20zM927 995c0 24 21 46 47 46c17 0 24 -9 24 -20c0 -24 -23 -46 -48 -46c-17 0 -23 9 -23 20zM912 338
l-85 510l-452 -510h537z" />
    <glyph glyph-name="five" unicode="5" horiz-adv-x="893" 
d="M881 335c0 128 -136 155 -256 155c-122 0 -258 -50 -375 -138h-45c60 166 119 332 179 498h718l-15 -41h-672l-154 -427c115 94 253 149 378 149c138 0 290 -32 290 -180c0 -29 -6 -60 -17 -91c-28 -79 -90 -154 -171 -200c-102 -57 -208 -70 -307 -70
c-112 0 -232 18 -280 98l44 31c41 -73 150 -88 250 -88c87 0 181 11 271 60c69 38 124 101 148 169c9 26 14 51 14 75z" />
    <glyph glyph-name="Aring" unicode="&#xc5;" horiz-adv-x="1032" 
d="M19 0l753 850h100l142 -850h-46l-50 297h-579l-264 -297h-56zM912 338l-85 510l-452 -510h537zM906 1020c0 43 -49 50 -89 50c-29 0 -58 -2 -88 -18c-22 -12 -40 -32 -48 -53c-3 -7 -4 -15 -4 -22c0 -43 49 -50 89 -50c29 0 58 3 88 19c22 12 40 32 48 53c3 7 4 14 4 21z
M756 900c-52 0 -111 11 -111 67c0 10 2 21 6 32c10 29 33 56 63 73c38 21 76 25 113 25c52 0 111 -10 111 -66c0 -10 -2 -21 -6 -32c-10 -29 -33 -56 -63 -73c-38 -21 -76 -26 -113 -26z" />
    <glyph glyph-name="z" unicode="z" horiz-adv-x="688" 
d="M231 512l14 40h596l-15 -40h-595zM61 41h-6l8 4zM61 41h595l-14 -41h-596zM63 45l19 55l742 408l-19 -56zM824 508l2 4h6z" />
    <glyph glyph-name="Ccedilla" unicode="&#xc7;" horiz-adv-x="1256" 
d="M256 289c0 -210 209 -258 406 -258c137 0 284 20 423 102c47 28 89 63 125 102l31 -23c-39 -42 -83 -79 -133 -109c-146 -88 -302 -112 -447 -113l-32 -64c76 0 188 -10 188 -90c0 -9 -1 -19 -5 -29c-14 -38 -51 -70 -92 -88c-62 -27 -122 -31 -181 -31
c-68 0 -151 6 -182 53l33 24c24 -41 101 -45 160 -45c84 0 201 17 226 87c2 7 3 13 3 19c0 20 -13 36 -31 45c-38 20 -86 23 -135 23h-34l48 96c-142 2 -277 26 -359 113c-41 44 -60 104 -60 170c0 48 10 100 29 152c45 125 137 246 263 322c151 91 312 113 461 113
c195 0 397 -44 433 -222l-47 -23c-33 164 -222 204 -401 204c-137 0 -284 -20 -423 -102c-115 -68 -200 -179 -241 -292c-17 -47 -26 -93 -26 -136z" />
    <glyph glyph-name="Idotaccent" unicode="&#x130;" horiz-adv-x="343" 
d="M149 0l306 850h45l-306 -850h-45zM486 1021c0 -24 -23 -46 -48 -46c-17 0 -24 9 -24 20c0 13 10 30 20 38c9 6 19 8 28 8c17 0 24 -9 24 -20z" />
    <glyph glyph-name="sterling" unicode="&#xa3;" horiz-adv-x="893" 
d="M1017 719c-13 79 -97 100 -181 100c-63 0 -133 -11 -196 -51c-55 -35 -95 -90 -115 -146l-63 -176h396l-15 -42h-396l-62 -171c-28 -80 -92 -160 -181 -192h636l-14 -41h-759l15 41c52 0 109 13 158 50c50 37 81 90 100 142l62 171h-189l15 42h189l63 176
c24 67 71 133 138 176c75 48 157 62 233 62c100 0 198 -26 214 -120z" />
    <glyph glyph-name="eight" unicode="8" horiz-adv-x="930" 
d="M201 175c0 -126 157 -144 275 -144c86 0 177 7 267 51c64 31 118 85 140 146c7 19 10 37 10 54c0 126 -157 144 -275 144c-86 0 -177 -8 -267 -52c-64 -31 -118 -85 -140 -146c-7 -19 -10 -36 -10 -53zM492 457c-63 16 -125 52 -125 128c0 18 4 38 11 58
c23 64 75 125 141 161c85 47 173 56 256 56c117 0 253 -24 253 -149c0 -22 -5 -44 -13 -68c-22 -60 -74 -115 -136 -147c-37 -19 -75 -31 -112 -39c48 -9 92 -24 126 -52c32 -25 48 -64 48 -108c0 -22 -3 -45 -12 -69c-26 -72 -88 -138 -163 -176
c-102 -52 -207 -62 -305 -62c-137 0 -308 23 -308 169c0 22 4 45 13 69c26 72 88 139 163 177c54 28 109 43 163 52zM980 695c0 105 -121 124 -220 124c-71 0 -146 -8 -219 -46c-55 -29 -99 -77 -118 -130c-7 -18 -10 -36 -10 -53c0 -105 121 -123 220 -123
c71 0 146 8 219 46c55 29 99 77 118 130c7 18 10 35 10 52z" />
    <glyph glyph-name="Ntilde" unicode="&#xd1;" horiz-adv-x="1163" 
d="M130 0l306 850h45l-306 -850h-45zM606 918h-36c13 35 41 68 77 88c46 26 95 31 140 31c63 0 79 -70 142 -70c35 0 72 4 109 22c26 13 49 36 58 61h36c-13 -35 -41 -68 -77 -88c-46 -26 -94 -31 -139 -31c-63 0 -79 70 -142 70c-35 0 -73 -4 -110 -22
c-26 -13 -49 -36 -58 -61zM987 0l-1 -2l-1 2h2zM987 0l306 850h45l-306 -850h-45zM985 -0h-53l-449 850h53zM483 850h-2l1 2z" />
    <glyph glyph-name="Z" unicode="Z" horiz-adv-x="949" 
d="M338 809l14 41h856l-36 -100l-1107 -709h852l-15 -41h-856l36 100l1108 709h-852z" />
    <glyph glyph-name="T" unicode="T" horiz-adv-x="856" 
d="M293 809l15 41h852l-15 -41h-403l-292 -809h-45l291 809h-403z" />
    <glyph glyph-name="parenleft" unicode="(" horiz-adv-x="511" 
d="M192 60c0 -145 57 -261 151 -318l-32 -37c-103 62 -166 186 -166 344c0 81 17 166 48 253c59 164 168 325 317 452c71 61 150 112 231 146l5 -37c-233 -99 -428 -338 -508 -561c-30 -83 -46 -165 -46 -242z" />
    <glyph glyph-name="Eacute" unicode="&#xc9;" horiz-adv-x="865" 
d="M130 0l306 850h670l-15 -41h-624l-131 -363h602l-15 -42h-602l-131 -363h625l-15 -41h-670zM897 1084h55l-250 -170h-41z" />
    <glyph glyph-name="zcaron" unicode="&#x17e;" horiz-adv-x="688" 
d="M231 512l14 40h596l-15 -40h-595zM847 843h45l-272 -170h-62l-150 170h46l143 -147zM61 41h-6l8 4zM61 41h595l-14 -41h-596zM63 45l19 55l742 408l-19 -56zM824 508l2 4h6z" />
    <glyph glyph-name="IJ" unicode="&#x132;" horiz-adv-x="1125" 
d="M482 129c19 -82 123 -98 215 -98c71 0 146 8 219 47c55 29 100 79 119 133l230 639h45l-230 -639c-23 -65 -75 -126 -141 -163c-85 -47 -173 -58 -256 -58c-107 0 -226 20 -248 116zM149 0l306 850h45l-306 -850h-45z" />
    <glyph glyph-name="guilsinglleft" unicode="&#x2039;" horiz-adv-x="511" 
d="M246 276l182 -276h-63l-182 276l380 276h64z" />
    <glyph glyph-name="quotedblbase" unicode="&#x201e;" horiz-adv-x="856" 
d="M113 -170l247 276h45l-259 -276h-33zM675 106h57l-261 -276h-42z" />
    <glyph glyph-name="abreve" unicode="&#x103;" 
d="M621 562c125 0 276 -23 276 -156c0 -21 -5 -45 -13 -68l-121 -338h-45l32 90c-23 -23 -51 -42 -81 -55c-86 -39 -172 -45 -254 -45c-87 0 -174 6 -238 45c-31 19 -51 49 -51 87c0 13 2 28 7 42c20 56 76 102 136 128c92 39 184 46 271 46c104 0 237 -12 263 -101l36 101
c7 18 10 35 10 52c0 113 -136 132 -243 132c-77 0 -158 -8 -238 -48c-18 -9 -36 -21 -52 -34l-22 30c16 13 33 24 51 34c92 49 187 58 276 58zM967 802c-13 -37 -55 -64 -95 -78c-69 -24 -135 -27 -200 -27s-129 3 -180 27c-24 11 -43 30 -43 56c0 7 1 15 4 22h36
c-2 -4 -3 -9 -3 -13c0 -20 21 -31 42 -38c47 -16 102 -18 157 -18s111 2 170 18c31 9 66 23 76 51h36zM525 297c-75 0 -153 -4 -233 -35c-49 -19 -98 -53 -114 -98c-4 -10 -5 -20 -5 -29c0 -31 21 -54 48 -69c58 -31 134 -35 209 -35s153 4 233 35c49 19 97 53 113 98
c4 10 6 19 6 28c0 31 -21 55 -48 70c-58 31 -134 35 -209 35z" />
    <glyph glyph-name="G" unicode="G" horiz-adv-x="1330" 
d="M256 289c0 -210 209 -258 406 -258c134 0 276 13 416 82c100 50 185 137 220 233l21 58h-522l14 42h568l-161 -446h-45l82 229c-45 -59 -104 -110 -171 -146c-146 -77 -296 -93 -437 -93c-149 0 -293 22 -379 113c-41 44 -60 104 -60 170c0 48 10 100 29 152
c45 125 137 246 263 322c151 91 312 113 461 113c189 0 384 -41 429 -205l-47 -25c-41 152 -223 189 -397 189c-137 0 -284 -20 -423 -102c-115 -68 -200 -179 -241 -292c-17 -47 -26 -93 -26 -136z" />
    <glyph glyph-name="h" unicode="h" horiz-adv-x="846" 
d="M840 418c0 85 -87 104 -167 104c-81 0 -165 -5 -251 -41c-55 -23 -107 -65 -125 -116l-131 -365h-45l342 950h45l-181 -504c25 27 56 49 89 65c92 44 184 51 272 51c97 0 200 -24 200 -128c0 -22 -4 -45 -13 -69l-131 -365h-45l131 365c7 18 10 36 10 53z" />
    <glyph glyph-name="aacute" unicode="&#xe1;" 
d="M621 562c125 0 276 -23 276 -156c0 -21 -5 -45 -13 -68l-121 -338h-45l32 90c-23 -23 -51 -42 -81 -55c-86 -39 -172 -45 -254 -45c-87 0 -174 6 -238 45c-31 19 -51 49 -51 87c0 13 2 28 7 42c20 56 76 102 136 128c92 39 184 46 271 46c104 0 237 -12 263 -101l36 101
c7 18 10 35 10 52c0 113 -136 132 -243 132c-77 0 -158 -8 -238 -48c-18 -9 -36 -21 -52 -34l-22 30c16 13 33 24 51 34c92 49 187 58 276 58zM850 843h56l-250 -170h-41zM525 297c-75 0 -153 -4 -233 -35c-49 -19 -98 -53 -114 -98c-4 -10 -5 -20 -5 -29
c0 -31 21 -54 48 -69c58 -31 134 -35 209 -35s153 4 233 35c49 19 97 53 113 98c4 10 6 19 6 28c0 31 -21 55 -48 70c-58 31 -134 35 -209 35z" />
    <glyph glyph-name="eacute" unicode="&#xe9;" horiz-adv-x="921" 
d="M204 196c0 -137 144 -165 272 -165c88 0 181 7 274 51c29 14 57 33 80 55l27 -27c-25 -23 -53 -43 -84 -58c-105 -52 -212 -62 -312 -62c-146 0 -305 34 -305 190c0 30 6 63 18 96c30 83 94 163 178 212c104 60 214 74 316 74c146 0 305 -33 305 -189
c0 -30 -6 -64 -18 -97l-7 -20h-736c-6 -21 -8 -41 -8 -60zM897 843h55l-250 -170h-41zM925 356c0 137 -144 166 -272 166c-90 0 -187 -12 -279 -64c-66 -37 -119 -97 -147 -161h689c6 21 9 40 9 59z" />
    <glyph glyph-name="Scaron" unicode="&#x160;" horiz-adv-x="967" 
d="M1054 716c-33 90 -169 103 -280 103c-90 0 -183 -3 -277 -46c-62 -28 -115 -82 -136 -141c-7 -19 -9 -36 -9 -53c0 -72 60 -119 145 -119h9l287 -25h10c102 0 174 -57 174 -144c0 -20 -4 -43 -12 -66c-26 -73 -88 -141 -164 -177c-110 -53 -221 -58 -326 -58
c-136 0 -305 19 -329 144l47 21c5 -31 23 -56 49 -73c65 -44 156 -51 248 -51c93 0 191 4 289 48c64 29 118 85 140 146c7 18 10 37 10 53c0 70 -58 116 -141 116h-8l-288 25h-10c-105 0 -178 59 -178 147c0 21 4 43 12 66c25 70 85 137 158 172c107 51 213 56 315 56
c128 0 283 -17 314 -127zM981 1084h46l-272 -170h-62l-150 170h46l143 -147z" />
    <glyph glyph-name="greater" unicode="&#x3e;" horiz-adv-x="911" 
d="M860 276l-603 230l18 52l671 -256l-19 -52l-854 -255l18 51z" />
    <glyph glyph-name="oe" unicode="&#x153;" horiz-adv-x="1469" 
d="M848 185c0 -121 112 -154 226 -154c77 0 159 9 238 51c26 14 49 32 69 53l30 -25c-23 -23 -48 -42 -77 -58c-91 -51 -186 -62 -275 -62c-128 0 -252 36 -259 166c-27 -35 -60 -67 -99 -92c-90 -58 -188 -74 -279 -74c-131 0 -260 38 -260 178c0 34 8 71 21 108
c29 80 85 160 165 212c90 58 189 74 280 74c128 0 252 -36 259 -166c27 35 60 67 99 92c90 58 188 74 279 74c131 0 260 -38 260 -178c0 -34 -8 -71 -21 -108l-8 -20h-637c-7 -24 -11 -48 -11 -71zM839 368c0 121 -112 154 -226 154c-79 0 -164 -14 -242 -64
c-69 -44 -118 -113 -143 -182c-11 -31 -17 -62 -17 -91c0 -121 111 -154 225 -154c79 0 165 14 243 64c69 44 117 112 142 181c11 31 18 63 18 92zM1476 368c0 121 -111 154 -225 154c-79 0 -165 -14 -243 -64c-62 -40 -107 -99 -134 -161h591c7 24 11 48 11 71z" />
    <glyph glyph-name="Nacute" unicode="&#x143;" horiz-adv-x="1163" 
d="M130 0l306 850h45l-306 -850h-45zM1013 1084h55l-249 -170h-41zM987 0l-1 -2l-1 2h2zM987 0l306 850h45l-306 -850h-45zM985 -0h-53l-449 850h53zM483 850h-2l1 2z" />
    <glyph glyph-name="lacute" unicode="&#x13a;" horiz-adv-x="268" 
d="M112 0l342 950h45l-342 -950h-45zM578 1188h55l-250 -170h-40z" />
    <glyph glyph-name="less" unicode="&#x3c;" horiz-adv-x="911" 
d="M251 276l603 -230l-19 -51l-670 255l18 52l855 256l-19 -52z" />
    <glyph glyph-name="asciicircum" unicode="^" horiz-adv-x="1004" 
d="M797 819l-553 -479h-49l589 510h49l221 -510h-49z" />
    <glyph glyph-name="seven" unicode="7" horiz-adv-x="883" 
d="M366 809l14 41h716l-36 -100l-803 -750h-62l867 809h-696z" />
    <glyph glyph-name="Ocircumflex" unicode="&#xd4;" horiz-adv-x="1302" 
d="M1352 561c0 210 -209 258 -406 258c-137 0 -284 -20 -423 -102c-115 -68 -200 -179 -241 -292c-17 -47 -26 -93 -26 -136c0 -210 209 -258 406 -258c137 0 284 20 423 102c115 68 200 179 241 292c17 47 26 93 26 136zM961 860c149 0 293 -22 379 -113
c41 -44 60 -104 60 -170c0 -48 -10 -100 -29 -152c-45 -125 -137 -246 -263 -322c-151 -91 -312 -113 -461 -113s-293 22 -379 113c-41 44 -60 104 -60 170c0 48 10 100 29 152c45 125 137 246 263 322c151 91 312 113 461 113zM949 1061l-250 -147h-45l272 170h62l150 -170
h-46z" />
    <glyph glyph-name="F" unicode="F" horiz-adv-x="837" 
d="M130 0l306 850h670l-15 -41h-624l-131 -363h602l-15 -42h-602l-146 -404h-45z" />
    <glyph glyph-name="tilde" unicode="&#x2dc;" horiz-adv-x="391" 
d="M220 684h-36c13 35 41 68 77 88c46 26 95 31 140 31c63 0 79 -70 142 -70c35 0 72 4 109 22c26 13 49 36 58 61h36c-13 -35 -41 -68 -77 -88c-46 -26 -94 -31 -139 -31c-63 0 -79 70 -142 70c-35 0 -73 -4 -110 -22c-26 -13 -49 -36 -58 -61z" />
    <glyph glyph-name="iacute" unicode="&#xed;" horiz-adv-x="353" 
d="M154 0l199 552h45l-199 -552h-45zM609 843h55l-250 -170h-41z" />
    <glyph glyph-name="Otilde" unicode="&#xd5;" horiz-adv-x="1302" 
d="M676 918h-36c13 35 41 68 77 88c46 26 94 31 139 31c63 0 80 -70 143 -70c35 0 72 4 109 22c26 13 49 36 58 61h36c-13 -35 -41 -68 -77 -88c-46 -26 -94 -31 -139 -31c-63 0 -80 70 -143 70c-35 0 -72 -4 -109 -22c-26 -13 -49 -36 -58 -61zM1352 561
c0 210 -209 258 -406 258c-137 0 -284 -20 -423 -102c-115 -68 -200 -179 -241 -292c-17 -47 -26 -93 -26 -136c0 -210 209 -258 406 -258c137 0 284 20 423 102c115 68 200 179 241 292c17 47 26 93 26 136zM961 860c149 0 293 -22 379 -113c41 -44 60 -104 60 -170
c0 -48 -10 -100 -29 -152c-45 -125 -137 -246 -263 -322c-151 -91 -312 -113 -461 -113s-293 22 -379 113c-41 44 -60 104 -60 170c0 48 10 100 29 152c45 125 137 246 263 322c151 91 312 113 461 113z" />
    <glyph glyph-name="parenright" unicode=")" horiz-adv-x="511" 
d="M418 900c103 -62 166 -186 166 -344c0 -81 -16 -167 -47 -254c-86 -239 -298 -492 -549 -597l-5 37c233 99 429 337 509 560c30 83 45 166 45 243c0 145 -56 261 -150 318z" />
    <glyph glyph-name="germandbls" unicode="&#xdf;" horiz-adv-x="921" 
d="M772 477c81 -17 157 -62 157 -158c0 -25 -5 -52 -15 -80c-25 -68 -68 -137 -135 -184c-69 -49 -148 -65 -219 -65c-91 0 -181 21 -212 93l46 28c25 -62 103 -80 181 -80c59 0 124 13 181 54c55 39 92 97 113 154c8 22 12 44 12 64c0 122 -136 144 -250 144h-79l14 41h79
c47 0 99 11 145 43c44 31 74 78 90 123c6 18 10 35 10 51c0 95 -104 114 -194 114c-63 0 -132 -7 -197 -43c-50 -27 -89 -73 -107 -122l-235 -654h-45l235 654c22 60 69 117 130 152c77 44 158 54 233 54c108 0 228 -24 228 -139c0 -21 -5 -44 -13 -67
c-26 -71 -78 -141 -153 -177z" />
    <glyph glyph-name="a" unicode="a" 
d="M621 562c125 0 276 -23 276 -156c0 -21 -5 -45 -13 -68l-121 -338h-45l32 90c-23 -23 -51 -42 -81 -55c-86 -39 -172 -45 -254 -45c-87 0 -174 6 -238 45c-31 19 -51 49 -51 87c0 13 2 28 7 42c20 56 76 102 136 128c92 39 184 46 271 46c104 0 237 -12 263 -101l36 101
c7 18 10 35 10 52c0 113 -136 132 -243 132c-77 0 -158 -8 -238 -48c-18 -9 -36 -21 -52 -34l-22 30c16 13 33 24 51 34c92 49 187 58 276 58zM525 297c-75 0 -153 -4 -233 -35c-49 -19 -98 -53 -114 -98c-4 -10 -5 -20 -5 -29c0 -31 21 -54 48 -69c58 -31 134 -35 209 -35
s153 4 233 35c49 19 97 53 113 98c4 10 6 19 6 28c0 31 -21 55 -48 70c-58 31 -134 35 -209 35z" />
    <glyph glyph-name="scedilla" unicode="&#x15f;" horiz-adv-x="744" 
d="M111 -235c24 -41 101 -45 160 -45c84 0 200 17 225 87c2 7 4 13 4 19c0 20 -13 36 -31 45c-38 20 -86 23 -135 23h-34l48 96c-73 1 -145 8 -199 41c-23 14 -40 36 -45 62l46 21c4 -24 21 -42 43 -53c53 -27 122 -30 190 -30c70 0 141 1 215 29c43 16 84 48 98 88
c4 11 6 21 6 31c0 44 -38 72 -92 72c-7 0 -14 0 -22 -1l-221 14c-11 -1 -20 -2 -30 -2c-75 0 -128 40 -128 102c0 14 2 29 8 45c18 49 64 94 116 116c82 35 163 37 241 37c77 0 154 -4 210 -39c20 -12 35 -31 41 -53l-46 -24c-5 20 -20 36 -40 46c-50 26 -114 30 -179 30
c-66 0 -134 -1 -204 -28c-41 -16 -79 -47 -93 -85c-4 -11 -6 -22 -6 -32c0 -45 39 -74 95 -74c8 0 16 1 24 2l220 -14c10 1 20 2 30 2c73 0 124 -39 124 -100c0 -14 -3 -29 -9 -45c-18 -51 -66 -96 -120 -119c-82 -35 -161 -39 -239 -39l-32 -64c76 0 188 -10 188 -90
c0 -9 -1 -19 -5 -29c-14 -38 -51 -70 -92 -88c-62 -27 -122 -31 -181 -31c-68 0 -151 6 -182 53z" />
    <glyph glyph-name="ugrave" unicode="&#xf9;" horiz-adv-x="884" 
d="M208 148c0 -105 141 -117 240 -117c74 0 151 6 229 41c52 24 99 66 117 115l132 365h45l-199 -552h-45l37 103c-23 -25 -51 -46 -81 -62c-84 -43 -168 -51 -249 -51c-118 0 -274 18 -274 143c0 17 3 35 10 54l131 365h45l-131 -365c-5 -14 -7 -27 -7 -39zM562 843h55
l113 -170h-41z" />
    <glyph glyph-name="uacute" unicode="&#xfa;" horiz-adv-x="884" 
d="M208 148c0 -105 141 -117 240 -117c74 0 151 6 229 41c52 24 99 66 117 115l132 365h45l-199 -552h-45l37 103c-23 -25 -51 -46 -81 -62c-84 -43 -168 -51 -249 -51c-118 0 -274 18 -274 143c0 17 3 35 10 54l131 365h45l-131 -365c-5 -14 -7 -27 -7 -39zM869 843h55
l-250 -170h-40z" />
    <glyph glyph-name="Ncaron" unicode="&#x147;" horiz-adv-x="1163" 
d="M130 0l306 850h45l-306 -850h-45zM1084 1084h45l-272 -170h-62l-150 170h46l143 -147zM987 0l-1 -2l-1 2h2zM987 0l306 850h45l-306 -850h-45zM985 -0h-53l-449 850h53zM483 850h-2l1 2z" />
    <glyph glyph-name="one" unicode="1" horiz-adv-x="632" 
d="M340 0l297 825l-323 -160l20 58l257 127h100l-306 -850h-45z" />
    <glyph glyph-name="f" unicode="f" horiz-adv-x="549" 
d="M785 866c0 40 -33 53 -71 53c-26 0 -54 -6 -79 -24c-24 -17 -41 -43 -50 -68l-99 -275h194l-14 -40h-194l-184 -512h-46l185 512h-194l14 40h194l99 275c13 36 37 74 72 99c37 26 79 34 117 34c55 0 104 -19 104 -78c0 -17 -4 -36 -11 -55h-45c5 13 8 27 8 39z" />
    <glyph glyph-name="Ugrave" unicode="&#xd9;" horiz-adv-x="1105" 
d="M250 193c0 -142 180 -162 314 -162c98 0 200 8 303 57c72 34 134 96 159 164l215 598h45l-215 -598c-29 -80 -98 -152 -181 -194c-115 -58 -231 -68 -341 -68c-153 0 -347 26 -347 188c0 24 4 48 13 74l216 598h45l-216 -598c-7 -21 -10 -40 -10 -59zM677 1084h56
l113 -170h-41z" />
    <glyph glyph-name="macron" unicode="&#xaf;" horiz-adv-x="391" 
d="M207 726l13 36h499l-13 -36h-499z" />
    <glyph glyph-name="dash" horiz-adv-x="586" 
d="M166 256l15 41h437l-14 -41h-438z" />
    <glyph glyph-name="thorn" unicode="&#xfe;" horiz-adv-x="949" 
d="M489 -10c-133 0 -267 35 -275 170l-165 -460h-45l414 1150h45l-165 -457c29 37 64 70 105 95c95 59 197 74 292 74c143 0 297 -34 297 -187c0 -31 -6 -65 -18 -99c-30 -82 -92 -163 -176 -212c-102 -60 -209 -74 -309 -74zM944 358c0 134 -137 164 -263 164
c-88 0 -182 -12 -272 -64c-72 -42 -127 -111 -153 -182c-8 -29 -15 -55 -15 -82c0 -134 137 -163 263 -163c88 0 182 12 272 64c72 42 127 110 153 181c10 28 15 56 15 82z" />
    <glyph glyph-name="space" unicode=" " horiz-adv-x="558" 
 />
    </font>
</defs>
</svg>
